<?xml version="1.0" encoding="utf-8"?>
<!-- Generator: Adobe Illustrator 19.2.1, SVG Export Plug-In . SVG Version: 6.00 Build 0)  -->
<svg version="1.1" id="Layer_1" xmlns="http://www.w3.org/2000/svg" xmlns:xlink="http://www.w3.org/1999/xlink" x="0px" y="0px"
	 viewBox="0 0 29.7 20.5" style="enable-background:new 0 0 29.7 20.5;" xml:space="preserve">
<style type="text/css">
	.st0{fill:#C42228;}
	.st1{fill:#FFFFFF;}
</style>
<g>
	<g>
		<path class="st0" d="M22.2,6.3L20,4.2c-0.5-0.4-1.3-0.8-1.9-0.8h-4.3h0H9.4c-0.6,0-1.5,0.4-1.9,0.8L5.3,6.3c0-0.4-0.1-1-1-1
			c-0.8,0-1.8,0.3-1.8,1c0,0.6,0.8,1.2,1.5,1.4L3,8.5c0,0,0,0-0.1,0.1c-0.9,0.8-1.5,2.2-1.5,3.3V15c0,0.8,0.3,1.5,0.8,2v1.2
			c0,0.7,0.6,1.3,1.3,1.3h1.6c0.7,0,1.3-0.6,1.3-1.3v-0.3h7.2h0H21v0.3c0,0.7,0.6,1.3,1.3,1.3h1.6c0.7,0,1.3-0.6,1.3-1.3V17
			c0.5-0.5,0.8-1.2,0.8-2v-3.1c0-1.1-0.6-2.5-1.5-3.3c0,0,0,0-0.1-0.1l-0.9-0.8 M8.3,5.1c0.3-0.3,0.9-0.5,1.1-0.5h4.3h0h4.3
			c0.3,0,0.8,0.2,1.1,0.5L22.1,8h-8.4h0H5.4L8.3,5.1z M2.5,11.4c0-0.8,0.6-1.4,1.4-1.4C4.6,10,7,11.4,7,12.2c0,0.8-2.4,0.6-3.2,0.6
			C3.1,12.8,2.5,12.1,2.5,11.4z M6.5,16.5H6.3H6l-1.5,0c-0.4-0.1-0.7-0.3-0.9-0.5c-0.1-0.1-0.2-0.2-0.3-0.3
			c-0.1-0.1-0.1-0.2-0.1-0.3c-0.2-0.5,0.2-1,0.2-1H6l1.7,2L6.5,16.5L6.5,16.5z M17.5,16.5h-3.8h0H10c-0.8,0-1.4-0.6-1.4-1.4h5.2h0
			h5.2C18.9,15.9,18.3,16.5,17.5,16.5z M17.8,14.1h-4.1h0H9.7c-0.9,0-1.5-1.1-1.5-2.3h5.6h0h5.6C19.4,13,18.7,14.1,17.8,14.1z
			 M24.4,15.5c0,0.1-0.1,0.2-0.1,0.3C24.1,15.9,24.1,16,24,16c-0.2,0.2-0.5,0.3-0.9,0.5l-1.5,0h-0.3H21h-1.2l1.7-2h2.6
			C24.1,14.5,24.5,15,24.4,15.5z M23.7,12.8c-0.7,0-3.2,0.2-3.2-0.6c0-0.8,2.4-2.2,3.2-2.2c0.7,0,1.4,0.6,1.4,1.4
			C25,12.1,24.4,12.8,23.7,12.8z"/>
		<path class="st1" d="M23.9,19.7h-1.6c-0.9,0-1.6-0.7-1.6-1.6v-0.1H6.8v0.1c0,0.9-0.7,1.6-1.6,1.6H3.6C2.7,19.7,2,19,2,18.2v-1.1
			c-0.5-0.6-0.8-1.3-0.8-2.1v-3.1c0-1.2,0.7-2.7,1.6-3.5c0,0,0,0,0.1-0.1l0.5-0.5C2.8,7.5,2.2,6.9,2.2,6.3C2.2,5.4,3.3,5,4.3,5
			c0.5,0,1,0.1,1.2,0.8L7.3,4c0.5-0.5,1.4-0.9,2.1-0.9h8.7c0.7,0,1.6,0.4,2.1,0.9l2.2,2.1l-0.4,0.4l-2.2-2.1
			c-0.4-0.4-1.2-0.7-1.8-0.7H9.4C8.9,3.7,8.1,4,7.7,4.4L5,6.9l0-0.6c0-0.5-0.1-0.8-0.7-0.8c-0.8,0-1.6,0.2-1.6,0.7
			c0,0.4,0.6,1,1.3,1.1l0.5,0.1L3.2,8.7c-0.9,0.8-1.4,2.2-1.4,3.1V15c0,0.7,0.3,1.3,0.7,1.8l0.1,0.1v1.3c0,0.6,0.5,1,1.1,1h1.6
			c0.6,0,1.1-0.5,1.1-1v-0.6h15v0.6c0,0.6,0.5,1,1.1,1h1.6c0.6,0,1.1-0.5,1.1-1v-1.3l0.1-0.1c0.5-0.5,0.7-1.1,0.7-1.8v-3.1
			c0-0.9-0.5-2.3-1.4-3.1l-0.1-0.1l-0.9-0.8l0.4-0.4l0.9,0.8c0,0,0,0,0.1,0.1c0.9,0.8,1.6,2.3,1.6,3.5V15c0,0.8-0.3,1.5-0.8,2.1v1.1
			C25.5,19,24.8,19.7,23.9,19.7z M23.1,16.8l-3.8,0l2.2-2.5h2.8l0.1,0.1c0.1,0.1,0.5,0.7,0.3,1.3l0,0c0,0.1-0.1,0.2-0.2,0.3
			c-0.1,0.1-0.2,0.2-0.3,0.3C23.9,16.4,23.5,16.6,23.1,16.8L23.1,16.8z M20.4,16.2l2.6,0c0.3-0.1,0.6-0.2,0.8-0.4
			c0.1-0.1,0.1-0.1,0.2-0.2c0-0.1,0.1-0.1,0.1-0.2c0.1-0.3,0-0.5-0.1-0.7h-2.4L20.4,16.2z M4.5,16.8L4.5,16.8
			c-0.5-0.1-0.8-0.3-1.1-0.5c-0.1-0.1-0.2-0.2-0.3-0.3c-0.1-0.1-0.1-0.2-0.2-0.3c-0.2-0.7,0.2-1.3,0.2-1.3l0.1-0.1h2.9l2.2,2.5
			L4.5,16.8z M3.5,14.7c-0.1,0.1-0.2,0.4-0.1,0.7c0,0.1,0.1,0.1,0.1,0.2c0.1,0.1,0.1,0.1,0.2,0.2c0.2,0.2,0.5,0.3,0.8,0.4l2.6,0
			l-1.3-1.5H3.5z M17.5,16.7H10c-0.9,0-1.7-0.8-1.7-1.7v-0.3h10.9v0.3C19.2,16,18.4,16.7,17.5,16.7z M8.9,15.3
			c0.1,0.5,0.6,0.9,1.1,0.9h7.5c0.5,0,1-0.4,1.1-0.9H8.9z M17.8,14.4H9.7c-1,0-1.8-1.1-1.8-2.6v-0.3h11.8v0.3
			C19.6,13.2,18.9,14.4,17.8,14.4z M8.4,12c0.1,1,0.6,1.8,1.3,1.8h8.2c0.6,0,1.2-0.8,1.3-1.8H8.4z M4.9,13c-0.2,0-0.5,0-0.7,0
			c-0.1,0-0.3,0-0.4,0c-0.9,0-1.6-0.7-1.6-1.7c0-0.9,0.7-1.7,1.6-1.7c0.8,0,3.5,1.5,3.5,2.5c0,0.2-0.1,0.3-0.2,0.4
			C6.7,13,5.9,13,4.9,13z M3.8,10.2c-0.6,0-1.1,0.5-1.1,1.1c0,0.6,0.5,1.1,1.1,1.1c0.1,0,0.2,0,0.4,0c0.7,0,2.2,0.1,2.5-0.3
			c0,0,0,0,0-0.1C6.8,11.7,4.7,10.2,3.8,10.2z M22.6,13c-1,0-1.8-0.1-2.2-0.4c-0.1-0.1-0.2-0.3-0.2-0.4c0-1,2.6-2.5,3.5-2.5
			c0.9,0,1.6,0.7,1.6,1.7c0,0.9-0.7,1.7-1.6,1.7c-0.1,0-0.2,0-0.4,0C23.1,13,22.8,13,22.6,13z M23.7,10.2c-0.8,0-2.9,1.5-2.9,1.9
			c0,0,0,0,0,0.1c0.3,0.3,1.9,0.3,2.5,0.3c0.2,0,0.3,0,0.4,0c0.6,0,1.1-0.5,1.1-1.1C24.8,10.7,24.3,10.2,23.7,10.2z M22.8,8.2h-18
			l3.4-3.3c0.4-0.3,1-0.5,1.3-0.5h8.7c0.3,0,0.9,0.2,1.3,0.5L22.8,8.2z M6,7.7h15.4L19,5.3C18.8,5.1,18.3,5,18.1,5H9.4
			c-0.2,0-0.7,0.2-1,0.4L6,7.7z"/>
	</g>
	<g>
		<path class="st0" d="M24.9,8.5c-2.2,0-3.9-1.8-3.9-3.9c0-2.2,1.8-3.9,3.9-3.9c2.2,0,3.9,1.8,3.9,3.9C28.9,6.8,27.1,8.5,24.9,8.5z
			 M24.9,1.5c-1.7,0-3.1,1.4-3.1,3.1c0,1.7,1.4,3.1,3.1,3.1c1.7,0,3.1-1.4,3.1-3.1C28,2.9,26.6,1.5,24.9,1.5z"/>
	</g>
	
		<rect x="24.7" y="2.5" transform="matrix(-1.836970e-16 1 -1 -1.836970e-16 29.5065 -20.4602)" class="st0" width="0.6" height="4.1"/>
	
		<rect x="24.7" y="2.5" transform="matrix(-1 -1.224647e-16 1.224647e-16 -1 49.9665 9.0463)" class="st0" width="0.6" height="4.1"/>
</g>
</svg>
