<?xml version="1.0" encoding="utf-8"?>
<!-- Generator: Adobe Illustrator 16.0.0, SVG Export Plug-In . SVG Version: 6.00 Build 0)  -->
<!DOCTYPE svg PUBLIC "-//W3C//DTD SVG 1.1//EN" "http://www.w3.org/Graphics/SVG/1.1/DTD/svg11.dtd">
<svg version="1.1" id="Layer_1" xmlns="http://www.w3.org/2000/svg" xmlns:xlink="http://www.w3.org/1999/xlink" x="0px" y="0px"
	 width="33.507px" height="23.408px" viewBox="0 0 33.507 23.408" enable-background="new 0 0 33.507 23.408" xml:space="preserve">
<g>
	<path fill="#FFFFFF" d="M25.012,7.591l-2.598-2.504c-0.528-0.522-1.529-0.934-2.277-0.934h-5.06h-0.001h-5.061
		c-0.747,0-1.748,0.411-2.276,0.934L5.143,7.591C5.129,7.09,5.009,6.38,3.975,6.38c-0.992,0-2.151,0.297-2.151,1.133
		c0,0.717,0.899,1.417,1.734,1.606l-1.007,0.972c-0.023,0.021-0.039,0.043-0.059,0.066c-1.077,0.92-1.781,2.628-1.781,3.867v3.681
		c0,0.895,0.353,1.705,0.922,2.31v1.428c0,0.835,0.699,1.517,1.559,1.517h1.885c0.86,0,1.558-0.68,1.558-1.517v-0.365h8.442h0.001
		h8.441v0.365c0,0.837,0.698,1.517,1.559,1.517h1.884c0.861,0,1.559-0.682,1.559-1.517v-1.428c0.57-0.604,0.922-1.415,0.922-2.31
		v-3.681c0.001-1.239-0.703-2.947-1.779-3.867c-0.02-0.022-0.037-0.044-0.059-0.066L26.596,9.12 M8.694,6.2
		c0.365-0.305,1.003-0.536,1.322-0.536h5.061h0.001h5.061c0.318,0,0.956,0.231,1.322,0.536l3.406,3.301h-9.789h-0.001H5.288
		L8.694,6.2z M1.88,13.467c0-0.907,0.709-1.643,1.585-1.643c0.875,0,3.737,1.679,3.737,2.586c0,0.906-2.861,0.697-3.737,0.697
		C2.589,15.108,1.88,14.374,1.88,13.467z M6.635,19.463H6.333H6.031l-1.792,0.003c-0.497-0.155-0.848-0.335-1.096-0.529
		c-0.125-0.099-0.222-0.2-0.297-0.302c-0.076-0.103-0.131-0.203-0.167-0.305c-0.223-0.629,0.238-1.208,0.238-1.208h3.057l2.038,2.34
		L6.635,19.463L6.635,19.463z M19.473,19.465h-4.396h-0.001h-4.396c-0.916,0-1.661-0.744-1.661-1.66h6.056h0.001h6.056
		C21.133,18.721,20.389,19.465,19.473,19.465z M19.859,16.672h-4.781h-0.001h-4.781c-0.997,0-1.806-1.23-1.806-2.746h6.587h0.001
		h6.587C21.665,15.444,20.856,16.672,19.859,16.672z M27.474,18.333c-0.036,0.101-0.091,0.201-0.167,0.304
		c-0.074,0.101-0.17,0.204-0.297,0.302c-0.247,0.193-0.599,0.375-1.096,0.529l-1.791-0.004h-0.303h-0.302h-1.38l2.039-2.339h3.058
		C27.236,17.124,27.696,17.702,27.474,18.333z M26.688,15.108c-0.875,0-3.735,0.208-3.735-0.697s2.86-2.586,3.735-2.586
		c0.877,0,1.586,0.736,1.586,1.643C28.274,14.373,27.565,15.108,26.688,15.108z"/>
	<path fill="#FFFFFF" d="M28.571,9.808c-2.54,0-4.607-2.067-4.607-4.607c0-2.541,2.067-4.607,4.607-4.607
		c2.541,0,4.607,2.066,4.607,4.607C33.178,7.74,31.112,9.808,28.571,9.808z M28.571,1.6c-1.984,0-3.6,1.615-3.6,3.6
		s1.615,3.6,3.6,3.6c1.985,0,3.6-1.615,3.6-3.6S30.556,1.6,28.571,1.6z"/>
	<rect x="28.083" y="2.733" fill="#FFFFFF" width="1.092" height="4.784"/>
	<rect x="26.237" y="4.58" fill="#FFFFFF" width="4.783" height="1.091"/>
</g>
</svg>
