<?xml version="1.0" encoding="utf-8"?>
<!-- Generator: Adobe Illustrator 16.0.0, SVG Export Plug-In . SVG Version: 6.00 Build 0)  -->
<!DOCTYPE svg PUBLIC "-//W3C//DTD SVG 1.1//EN" "http://www.w3.org/Graphics/SVG/1.1/DTD/svg11.dtd">
<svg version="1.1" id="Layer_1" xmlns="http://www.w3.org/2000/svg" xmlns:xlink="http://www.w3.org/1999/xlink" x="0px" y="0px"
	 width="140px" height="86px" viewBox="0 0 140 86" enable-background="new 0 0 140 86" xml:space="preserve">
<g opacity="0.5">
	<g>
		<path fill="#C42128" d="M70.907,0.474c-23.358,0-42.292,18.929-42.292,42.292c0,23.36,18.934,42.284,42.292,42.284
			c23.367,0,42.292-18.934,42.292-42.284C113.199,19.407,94.274,0.474,70.907,0.474z M70.907,80.44
			c-20.8,0-37.666-16.857-37.666-37.667c0-20.813,16.866-37.666,37.666-37.666c20.809,0,37.671,16.857,37.671,37.666
			C108.569,63.57,91.711,80.44,70.907,80.44z M58.239,61.059h6.885v11.412h-6.885V61.059z M68.678,61.059h6.885v11.412h-6.885
			V61.059z M78.937,61.059h6.886v11.412h-6.886V61.059z M76.528,45.342c0,1.942-1.585,3.526-3.524,3.526
			c-1.87,0-3.408-1.461-3.519-3.306L57.052,30.085l15.957,11.737C74.943,41.822,76.528,43.397,76.528,45.342z M50.867,51.21
			l3.054,3.058l-5.731,5.735l-3.058-3.063L50.867,51.21z M48.207,40.54H40.1v-4.322h8.106V40.54z M49.95,16.994l5.731,5.736
			l-3.059,3.054l-5.731-5.736L49.95,16.994z M73.068,18.972h-4.322v-8.107h4.322V18.972z M90.644,27.42l-3.063-3.054l5.741-5.736
			l3.053,3.058L90.644,27.42z M102.961,36.218v4.322h-8.102v-4.322H102.961z M92.122,52.076l5.74,5.732l-3.054,3.054l-5.741-5.731
			L92.122,52.076z"/>
		<path fill="#FFFFFF" d="M70.908,85.518c-23.579,0-42.76-19.179-42.76-42.752c0-23.579,19.182-42.76,42.76-42.76
			c23.578,0,42.759,19.182,42.759,42.76C113.667,66.339,94.485,85.518,70.908,85.518z M70.908,0.942
			c-23.062,0-41.824,18.762-41.824,41.824c0,23.058,18.763,41.815,41.824,41.815c23.062,0,41.824-18.758,41.824-41.815
			C112.731,19.704,93.97,0.942,70.908,0.942z M70.908,80.909c-21.028,0-38.135-17.107-38.135-38.135
			c0-21.027,17.107-38.135,38.135-38.135c21.03,0,38.138,17.107,38.138,38.135C109.037,63.802,91.929,80.909,70.908,80.909z
			 M70.908,5.576c-20.511,0-37.199,16.687-37.199,37.198c0,20.511,16.688,37.199,37.199,37.199
			c20.504,0,37.193-16.688,37.203-37.199C108.11,22.263,91.421,5.576,70.908,5.576z M86.29,72.938h-7.821V60.59h7.821V72.938z
			 M79.405,72.003h5.949V61.526h-5.949V72.003z M76.031,72.938H68.21V60.59h7.821V72.938z M69.146,72.003h5.948V61.526h-5.948
			V72.003z M65.593,72.938h-7.821V60.59h7.821V72.938z M58.708,72.003h5.949V61.526h-5.949V72.003z M94.809,61.524l-6.403-6.394
			l3.716-3.717l6.403,6.394L94.809,61.524z M89.73,55.13l5.077,5.07l2.393-2.392l-5.078-5.069L89.73,55.13z M48.19,60.666
			l-3.72-3.726l6.398-6.394l3.715,3.721L48.19,60.666z M45.794,56.941l2.396,2.4l5.07-5.074l-2.393-2.396L45.794,56.941z
			 M73.004,49.338c-2.057,0-3.774-1.566-3.974-3.594l-14.587-18.16l18.723,13.772c2.127,0.083,3.831,1.838,3.831,3.985
			C76.997,47.545,75.206,49.338,73.004,49.338z M59.661,32.585l10.283,12.802l0.008,0.148c0.097,1.607,1.438,2.865,3.052,2.865
			c1.686,0,3.056-1.372,3.056-3.059c0-1.684-1.368-3.052-3.051-3.052h-0.153L59.661,32.585z M103.43,41.008h-9.038V35.75h9.038
			V41.008z M95.328,40.072h7.165v-3.386h-7.165V40.072z M48.675,41.008h-9.042V35.75h9.042V41.008z M40.569,40.072h7.169v-3.386
			h-7.169V40.072z M90.645,28.081l-3.726-3.714l6.403-6.399l3.715,3.721L90.645,28.081z M88.245,24.366l2.398,2.392l5.07-5.07
			l-2.393-2.396L88.245,24.366z M52.623,26.446l-6.394-6.399l3.721-3.716l6.394,6.399L52.623,26.446z M47.554,20.048l5.07,5.074
			l2.396-2.393l-5.07-5.074L47.554,20.048z M73.536,19.44h-5.258v-9.043h5.258V19.44z M69.214,18.503h3.386v-7.17h-3.386V18.503z"/>
	</g>
</g>
</svg>
