<?xml version="1.0" encoding="utf-8"?>
<!-- Generator: Adobe Illustrator 16.0.0, SVG Export Plug-In . SVG Version: 6.00 Build 0)  -->
<!DOCTYPE svg PUBLIC "-//W3C//DTD SVG 1.1//EN" "http://www.w3.org/Graphics/SVG/1.1/DTD/svg11.dtd">
<svg version="1.1" id="Layer_1" xmlns="http://www.w3.org/2000/svg" xmlns:xlink="http://www.w3.org/1999/xlink" x="0px" y="0px"
	 width="140px" height="86px" viewBox="0 0 140 86" enable-background="new 0 0 140 86" xml:space="preserve">
<g opacity="0.5">
	<g>
		<path fill="#C42228" d="M94.018,30.345l-7.545-7.273c-1.531-1.518-4.439-2.711-6.611-2.711H65.168h-0.004H50.468
			c-2.171,0-5.077,1.194-6.611,2.711l-7.542,7.273c-0.039-1.457-0.388-3.517-3.392-3.517c-2.88,0-6.248,0.861-6.248,3.29
			c0,2.084,2.612,4.116,5.037,4.666l-2.924,2.822c-0.066,0.063-0.112,0.126-0.17,0.19c-3.128,2.674-5.172,7.633-5.172,11.231v10.693
			c0,2.595,1.023,4.95,2.677,6.705v4.147c0,2.425,2.03,4.402,4.526,4.402h5.473c2.497,0,4.524-1.974,4.524-4.402v-1.062h24.518
			h0.004h24.516v1.062c0,2.429,2.026,4.402,4.526,4.402h5.472c2.498,0,4.524-1.978,4.524-4.402v-4.147
			c1.655-1.755,2.677-4.11,2.677-6.705V49.027c0.004-3.598-2.039-8.557-5.168-11.231c-0.057-0.064-0.104-0.127-0.17-0.19
			l-2.924-2.822 M46.627,26.303c1.061-0.884,2.916-1.555,3.84-1.555h14.696h0.004h14.696c0.925,0,2.778,0.671,3.841,1.555
			l9.892,9.587H65.168h-0.004H36.737L46.627,26.303z M26.839,47.41c0-2.633,2.061-4.771,4.604-4.771
			c2.542,0,10.852,4.878,10.852,7.511c0,2.632-8.309,2.022-10.852,2.022C28.9,52.173,26.839,50.044,26.839,47.41z M40.648,64.824
			h-0.877h-0.877l-5.203,0.008c-1.444-0.449-2.462-0.974-3.183-1.537c-0.365-0.284-0.644-0.581-0.862-0.875
			c-0.22-0.299-0.38-0.592-0.483-0.884c-0.647-1.829,0.689-3.511,0.689-3.511h8.879l5.919,6.795L40.648,64.824L40.648,64.824z
			 M77.934,64.827H65.168h-0.004H52.399c-2.662,0-4.823-2.161-4.823-4.821h17.588h0.004h17.588
			C82.756,62.67,80.595,64.827,77.934,64.827z M79.053,56.717H65.168h-0.004H51.278c-2.895,0-5.245-3.57-5.245-7.973h19.131h0.004
			h19.131C84.299,53.148,81.949,56.717,79.053,56.717z M101.17,61.539c-0.105,0.293-0.266,0.586-0.485,0.883
			c-0.216,0.294-0.495,0.59-0.862,0.875c-0.719,0.563-1.738,1.092-3.183,1.537l-5.202-0.008h-0.877h-0.877h-4.008l5.924-6.795h8.877
			C100.477,58.029,101.814,59.707,101.17,61.539z M98.888,52.173c-2.54,0-10.85,0.606-10.85-2.022c0-2.63,8.31-7.511,10.85-7.511
			c2.544,0,4.604,2.138,4.604,4.771C103.492,50.041,101.432,52.173,98.888,52.173z"/>
		<path fill="#FFFFFF" d="M99.682,75.865h-5.473c-2.985,0-5.415-2.374-5.415-5.292v-0.171H41.536v0.171
			c0,2.918-2.429,5.292-5.414,5.292h-5.473c-2.986,0-5.416-2.374-5.416-5.292v-3.803c-1.729-1.96-2.677-4.45-2.677-7.05V49.027
			c0-4.092,2.33-9.176,5.43-11.861c0.076-0.089,0.128-0.147,0.19-0.207l1.86-1.795c-2.244-0.968-4.251-2.899-4.251-5.047
			c0-3.085,3.845-4.18,7.138-4.18c1.532,0,3.314,0.495,3.998,2.586l6.319-6.094c1.703-1.684,4.814-2.96,7.229-2.96H79.86
			c2.418,0,5.53,1.276,7.239,2.969l7.535,7.266l-1.234,1.28l-7.545-7.274c-1.375-1.361-4.061-2.462-5.995-2.462H50.468
			c-1.932,0-4.617,1.102-5.985,2.454l-9.003,8.683l-0.054-2.017c-0.044-1.637-0.478-2.651-2.503-2.651
			c-2.581,0-5.359,0.751-5.359,2.401c0,1.472,2.071,3.283,4.345,3.798l1.605,0.364l-4.318,4.192
			c-3.042,2.601-4.86,7.409-4.86,10.555v10.693c0,2.264,0.864,4.429,2.435,6.096l0.242,0.257v4.5c0,1.937,1.632,3.513,3.637,3.513
			h5.473c2.004,0,3.635-1.576,3.635-3.513v-1.95h50.815v1.95c0,1.937,1.632,3.513,3.637,3.513h5.473
			c2.004,0,3.635-1.576,3.635-3.513v-4.5l0.242-0.257c1.57-1.666,2.436-3.83,2.436-6.096V49.027
			c0.002-3.146-1.813-7.953-4.857-10.555l-0.209-0.227l-2.925-2.822l1.235-1.281l2.924,2.822c0.07,0.066,0.133,0.138,0.194,0.212
			c3.063,2.616,5.42,7.735,5.417,11.851v10.692c0,2.602-0.949,5.092-2.678,7.05v3.803C105.096,73.491,102.667,75.865,99.682,75.865z
			 M96.773,65.725l-13.053-0.01l7.474-8.573h9.632l0.256,0.238c0.246,0.229,1.702,2.253,0.927,4.454l-0.002,0.006
			c-0.135,0.375-0.339,0.748-0.606,1.11c-0.281,0.382-0.629,0.735-1.032,1.049c-0.868,0.681-2.003,1.233-3.466,1.686L96.773,65.725z
			 M87.632,63.937l8.872,0.008c1.175-0.374,2.105-0.827,2.77-1.348c0.277-0.215,0.51-0.45,0.694-0.702
			c0.166-0.225,0.288-0.444,0.364-0.654c0.324-0.928-0.065-1.844-0.335-2.319h-7.993L87.632,63.937z M33.557,65.723l-0.13-0.041
			c-1.465-0.455-2.599-1.008-3.466-1.687c-0.397-0.31-0.744-0.662-1.028-1.046c-0.272-0.369-0.476-0.745-0.607-1.117
			c-0.803-2.268,0.766-4.275,0.833-4.359l0.267-0.336h9.713l7.468,8.572L33.557,65.723z M30.335,58.916
			c-0.27,0.477-0.66,1.398-0.332,2.322c0.073,0.209,0.194,0.428,0.361,0.654c0.189,0.256,0.417,0.486,0.692,0.701
			c0.662,0.519,1.594,0.972,2.772,1.35l8.871-0.011l-4.371-5.017H30.335z M77.934,65.717H52.399c-3.149,0-5.712-2.562-5.712-5.711
			v-0.889h36.959v0.889C83.646,63.155,81.083,65.717,77.934,65.717z M48.567,60.896c0.404,1.74,1.969,3.041,3.832,3.041h25.535
			c1.862,0,3.427-1.301,3.831-3.041H48.567z M79.054,57.605H51.278c-3.44,0-6.134-3.893-6.134-8.861v-0.889h40.043v0.889
			C85.188,53.713,82.494,57.605,79.054,57.605z M46.959,49.635c0.278,3.437,2.144,6.192,4.319,6.192h27.775
			c2.176,0,4.041-2.756,4.319-6.192H46.959z M35.102,53.12c-0.784,0-1.586-0.015-2.388-0.034c-0.502-0.013-0.937-0.023-1.271-0.023
			c-3.03,0-5.494-2.535-5.494-5.652c0-3.121,2.464-5.66,5.494-5.66c2.808,0,11.741,5,11.741,8.4c0,0.565-0.225,1.084-0.652,1.5
			C41.288,52.866,38.351,53.12,35.102,53.12z M31.444,43.529c-2.048,0-3.715,1.74-3.715,3.881c0,2.135,1.667,3.873,3.715,3.873
			c0.345,0,0.794,0.012,1.314,0.023c2.212,0.055,7.394,0.183,8.532-0.93c0.106-0.104,0.116-0.169,0.116-0.227
			C41.406,48.584,34.292,43.529,31.444,43.529z M95.242,53.119c-3.254,0-6.195-0.254-7.441-1.471
			c-0.427-0.415-0.652-0.934-0.652-1.498c0-3.4,8.932-8.4,11.739-8.4c3.029,0,5.494,2.539,5.494,5.66
			c0,3.117-2.465,5.652-5.494,5.652c-0.332,0-0.765,0.011-1.267,0.023C96.823,53.105,96.023,53.119,95.242,53.119z M98.888,43.529
			c-2.847,0-9.96,5.055-9.96,6.621c0,0.057,0.009,0.122,0.115,0.226c1.139,1.111,6.324,0.985,8.535,0.931
			c0.518-0.012,0.966-0.023,1.31-0.023c2.049,0,3.716-1.738,3.716-3.873C102.604,45.27,100.937,43.529,98.888,43.529z
			 M95.793,36.781H34.541L46.058,25.62c1.246-1.038,3.324-1.761,4.41-1.761h29.396c1.085,0,3.163,0.723,4.409,1.761L95.793,36.781z
			 M38.932,35.001H91.4l-8.314-8.06c-0.891-0.738-2.557-1.304-3.222-1.304H50.468c-0.66,0-2.303,0.557-3.246,1.329L38.932,35.001z"
			/>
	</g>
	<g>
		<path fill="#C42228" d="M105.143,36.782c-7.378,0-13.38-6.003-13.38-13.381c0-7.377,6.002-13.379,13.38-13.379
			s13.379,6.002,13.379,13.379C118.521,30.779,112.521,36.782,105.143,36.782z M105.143,12.946c-5.766,0-10.455,4.69-10.455,10.455
			c0,5.766,4.689,10.456,10.455,10.456c5.765,0,10.455-4.69,10.455-10.456C115.598,17.636,110.907,12.946,105.143,12.946z"/>
		<path fill="#FFFFFF" d="M105.143,37.226c-7.623,0-13.824-6.202-13.824-13.825c0-7.623,6.201-13.824,13.824-13.824
			s13.824,6.202,13.824,13.824C118.967,31.024,112.766,37.226,105.143,37.226z M105.143,10.466c-7.133,0-12.936,5.802-12.936,12.935
			c0,7.133,5.803,12.936,12.936,12.936s12.935-5.803,12.935-12.936C118.077,16.269,112.275,10.466,105.143,10.466z M105.143,34.301
			c-6.01,0-10.9-4.89-10.9-10.9c0-6.01,4.891-10.899,10.9-10.899s10.899,4.89,10.899,10.899
			C116.042,29.412,111.152,34.301,105.143,34.301z M105.143,13.391c-5.52,0-10.011,4.49-10.011,10.01
			c0,5.52,4.491,10.011,10.011,10.011s10.01-4.491,10.01-10.011C115.152,17.881,110.662,13.391,105.143,13.391z"/>
	</g>
	<rect x="98.363" y="22.107" fill="#C42228" width="13.894" height="2.151"/>
	<rect x="104.234" y="16.236" fill="#C42228" width="2.15" height="13.893"/>
</g>
</svg>
