<?xml version="1.0" encoding="utf-8"?>
<!-- Generator: Adobe Illustrator 16.0.0, SVG Export Plug-In . SVG Version: 6.00 Build 0)  -->
<!DOCTYPE svg PUBLIC "-//W3C//DTD SVG 1.1//EN" "http://www.w3.org/Graphics/SVG/1.1/DTD/svg11.dtd">
<svg version="1.1" id="Layer_1" xmlns="http://www.w3.org/2000/svg" xmlns:xlink="http://www.w3.org/1999/xlink" x="0px" y="0px"
	 width="140px" height="86px" viewBox="0 0 140 86" enable-background="new 0 0 140 86" xml:space="preserve">
<g opacity="0.5">
	<g>
		<path fill="#C42329" stroke="#FFFFFF" stroke-width="3" stroke-miterlimit="10" d="M81.39,59.396
			c6.537-2.756,11.695-6.507,15.477-11.254c3.78-4.746,5.671-9.915,5.671-15.505c0-5.592-1.891-10.76-5.671-15.507
			c-3.781-4.746-8.939-8.497-15.477-11.253S67.743,1.744,60.061,1.744c-7.684,0-14.793,1.378-21.33,4.134
			c-6.536,2.755-11.695,6.507-15.475,11.253c-3.782,4.746-5.672,9.914-5.672,15.506c0,4.786,1.43,9.293,4.285,13.516
			c2.855,4.224,6.777,7.784,11.765,10.68c-0.402,0.966-0.814,1.851-1.237,2.655c-0.422,0.805-0.924,1.579-1.508,2.322
			c-0.584,0.746-1.036,1.329-1.358,1.749c-0.322,0.423-0.845,1.017-1.569,1.78c-0.725,0.765-1.187,1.268-1.388,1.509
			c0-0.042-0.08,0.05-0.241,0.271c-0.161,0.221-0.252,0.32-0.272,0.303c-0.02-0.022-0.101,0.078-0.241,0.3
			c-0.141,0.222-0.211,0.332-0.211,0.332l-0.151,0.301c-0.061,0.119-0.101,0.24-0.121,0.361c-0.021,0.12-0.031,0.252-0.031,0.392
			c0,0.141,0.02,0.271,0.06,0.393c0.082,0.521,0.312,0.943,0.694,1.267c0.383,0.321,0.794,0.481,1.237,0.481h0.181
			c2.011-0.281,3.742-0.603,5.188-0.966c6.195-1.608,11.787-4.183,16.774-7.723c3.62,0.644,7.161,0.966,10.62,0.966
			C67.743,63.528,74.853,62.152,81.39,59.396z M47.632,54.358l-2.656,1.87c-1.126,0.765-2.372,1.549-3.741,2.354l2.112-5.068
			l-5.852-3.379c-3.862-2.252-6.858-4.907-8.992-7.964c-2.132-3.057-3.197-6.234-3.197-9.533c0-4.104,1.58-7.945,4.736-11.525
			c3.157-3.58,7.411-6.416,12.76-8.508c5.35-2.091,11.103-3.138,17.257-3.138c6.154,0,11.907,1.046,17.257,3.138
			c5.349,2.093,9.604,4.928,12.762,8.508c3.157,3.58,4.735,7.421,4.735,11.525c0,4.103-1.578,7.944-4.735,11.523
			c-3.158,3.582-7.412,6.416-12.762,8.508s-11.102,3.138-17.257,3.138c-3.017,0-6.093-0.281-9.231-0.844L47.632,54.358z"/>
		<path fill="#C42329" stroke="#FFFFFF" stroke-width="3" stroke-miterlimit="10" d="M119.745,59.112
			c2.856-4.205,4.284-8.719,4.284-13.546c0-4.948-1.509-9.574-4.524-13.878c-3.017-4.303-7.121-7.884-12.31-10.739
			c0.925,3.016,1.388,6.073,1.388,9.171c0,5.39-1.347,10.499-4.042,15.325c-2.695,4.827-6.558,9.091-11.586,12.791
			c-4.665,3.379-9.975,5.973-15.929,7.784c-5.952,1.809-12.167,2.715-18.644,2.715c-1.206,0-2.977-0.08-5.31-0.241
			c8.086,5.31,17.579,7.964,28.479,7.964c3.46,0,7-0.321,10.62-0.965c4.987,3.541,10.579,6.114,16.773,7.724
			c1.448,0.363,3.178,0.684,5.189,0.966c0.482,0.041,0.925-0.102,1.327-0.421c0.402-0.324,0.664-0.766,0.785-1.326
			c-0.02-0.242,0-0.375,0.06-0.394c0.06-0.02,0.05-0.151-0.03-0.392c-0.08-0.242-0.12-0.363-0.12-0.363l-0.151-0.301
			c-0.041-0.079-0.108-0.19-0.21-0.332c-0.101-0.139-0.181-0.24-0.242-0.3c-0.059-0.061-0.148-0.162-0.271-0.302
			c-0.119-0.14-0.201-0.23-0.241-0.271c-0.201-0.241-0.663-0.744-1.387-1.509c-0.726-0.763-1.247-1.356-1.569-1.779
			c-0.321-0.422-0.773-1.005-1.357-1.75c-0.583-0.743-1.086-1.518-1.508-2.322c-0.423-0.805-0.835-1.689-1.237-2.654
			C112.968,66.868,116.892,63.318,119.745,59.112z"/>
	</g>
</g>
</svg>
