<?xml version="1.0" encoding="utf-8"?>
<!-- Generator: Adobe Illustrator 19.2.1, SVG Export Plug-In . SVG Version: 6.00 Build 0)  -->
<svg version="1.1" id="Layer_1" xmlns="http://www.w3.org/2000/svg" xmlns:xlink="http://www.w3.org/1999/xlink" x="0px" y="0px"
	 viewBox="0 0 612 792" style="enable-background:new 0 0 612 792;" xml:space="preserve">
<style type="text/css">
	.st0{opacity:0.7;}
	.st1{fill:#020203;}
</style>
<g class="st0">
	<g>
		<path class="st1" d="M606,336l0.1-0.1L484.7,173.7l-0.2,0.2c-3.7-4.3-9-7.2-15.1-7.2H145.5c-6.2,0-11.5,2.9-15.2,7.2l-0.2-0.2
			L9.9,334.4c-0.1,0.1-0.3,0.2-0.4,0.3c-0.3,0.3-0.4,0.7-0.7,1l-0.1,0.2l0,0c-0.8,1-1.2,2.1-1.8,3.1c-0.5,0.9-1.2,1.7-1.6,2.7
			c-3.1,7.3-1.8,16,4.2,22l283.2,283c8,8,20.9,8,28.9,0l283.3-283c0,0,0-0.1,0.1-0.1c3.8-3.7,6.2-8.8,6.2-14.5
			C611.1,344,609,339.5,606,336L606,336z M434.5,207.2l-39,88.5l-48.7-88.5H434.5z M369.3,328.8H245.6l61.9-107L369.3,328.8z
			 M268.1,207.2l-48.7,88.5l-39-88.5H268.1L268.1,207.2z M142.2,221.9l49.4,106.8H68.1L142.2,221.9z M72.9,369.3H192l66,184.9
			L72.9,369.3z M307.4,572.4l-72.5-203.2h144.9L307.4,572.4z M357.3,553.2l65.6-183.9h118.4L357.3,553.2z M423.3,328.8L472.7,222
			l74.1,106.8H423.3z"/>
	</g>
</g>
</svg>
