<?xml version="1.0" encoding="utf-8"?>
<!-- Generator: Adobe Illustrator 19.2.1, SVG Export Plug-In . SVG Version: 6.00 Build 0)  -->
<svg version="1.1" id="Layer_1" xmlns="http://www.w3.org/2000/svg" xmlns:xlink="http://www.w3.org/1999/xlink" x="0px" y="0px"
	 viewBox="0 0 612 792" style="enable-background:new 0 0 612 792;" xml:space="preserve">
<style type="text/css">
	.st0{opacity:0.52;}
	.st1{fill:#F1F2F2;}
</style>
<g class="st0">
	<g id="New_x5F_Post_1_">
		<g>
			<path class="st1" d="M536.8,378c-15.3,0-27.6,12.4-27.6,27.6v230.1H67.4V193.9h230.1c15.3,0,27.6-12.4,27.6-27.6
				s-12.3-27.6-27.6-27.6H49c-20.3,0-36.8,16.5-36.8,36.8v478.6c0,20.3,16.5,36.8,36.8,36.8h478.6c20.3,0,36.8-16.5,36.8-36.8V405.6
				C564.4,390.3,552.1,378,536.8,378z M594.8,187.5l-79.2-79.2c-4.3-4.3-10-6.4-15.6-6.4c-5.7,0-11.3,2.1-15.6,6.4L177.8,414.8
				v110.5h110.5l306.5-306.5c4.3-4.3,6.4-10,6.4-15.6C601.2,197.4,599.1,191.8,594.8,187.5z M269.9,470h-36.8v-36.8L500,166.3
				l36.8,36.8L269.9,470z"/>
		</g>
	</g>
</g>
</svg>
