<?xml version="1.0" encoding="utf-8"?>
<!-- Generator: Adobe Illustrator 19.2.1, SVG Export Plug-In . SVG Version: 6.00 Build 0)  -->
<svg version="1.1" id="Layer_1" xmlns="http://www.w3.org/2000/svg" xmlns:xlink="http://www.w3.org/1999/xlink" x="0px" y="0px"
	 viewBox="0 0 9.1 8.8" style="enable-background:new 0 0 9.1 8.8;" xml:space="preserve">
<style type="text/css">
	.st0{opacity:0.52;}
	.st1{fill:#F1F1F2;}
	.st2{fill:#FFFFFF;}
</style>
<g class="st0">
	<g id="New_x5F_Post_1_">
		<g>
			<path class="st1" d="M7.5,4.1c-0.2,0-0.4,0.2-0.4,0.4v3H1.3V1.7h3c0.2,0,0.4-0.2,0.4-0.4S4.5,1,4.3,1H1C0.8,1,0.6,1.2,0.6,1.4
				v6.3C0.6,8,0.8,8.2,1,8.2h6.3c0.3,0,0.5-0.2,0.5-0.5V4.5C7.8,4.3,7.7,4.1,7.5,4.1z M8.2,1.6l-1-1C7.1,0.5,7.1,0.5,7,0.5
				c-0.1,0-0.1,0-0.2,0.1l-4,4V6h1.5l4-4c0.1-0.1,0.1-0.1,0.1-0.2C8.3,1.7,8.3,1.7,8.2,1.6z M4,5.3H3.5V4.8L7,1.3l0.5,0.5L4,5.3z"/>
		</g>
	</g>
</g>
<g class="st0">
	<g>
		<path class="st2" d="M-50.1,6.6c0.1,0,0.3,0.1,0.4-0.1l1.2-1.7l1.2,1.2c0.1,0.1,0.2,0.1,0.2,0.1c0.1,0,0.2-0.1,0.2-0.1l2-2.9
			l0.1,1c0,0.2,0.2,0.3,0.3,0.3c0.2,0,0.3-0.2,0.3-0.3l-0.1-1.7c0-0.2-0.2-0.3-0.3-0.3l-1.7,0.1c-0.2,0-0.3,0.2-0.3,0.3
			c0,0.2,0.2,0.3,0.3,0.3l1-0.1l-1.9,2.7l-1.2-1.2C-48.4,4-48.5,4-48.6,4c-0.1,0-0.2,0.1-0.2,0.1l-1.4,2
			C-50.3,6.3-50.3,6.5-50.1,6.6L-50.1,6.6z"/>
		<path class="st2" d="M-44.1,7.4h-6.4V1c0-0.2-0.1-0.3-0.3-0.3s-0.3,0.1-0.3,0.3v6.7c0,0.2,0.1,0.3,0.3,0.3h6.7
			c0.2,0,0.3-0.1,0.3-0.3C-43.8,7.5-44,7.4-44.1,7.4z"/>
	</g>
</g>
</svg>
