<?xml version="1.0" encoding="utf-8"?>
<!-- Generator: Adobe Illustrator 16.0.0, SVG Export Plug-In . SVG Version: 6.00 Build 0)  -->
<!DOCTYPE svg PUBLIC "-//W3C//DTD SVG 1.1//EN" "http://www.w3.org/Graphics/SVG/1.1/DTD/svg11.dtd">
<svg version="1.1" id="Layer_1" xmlns="http://www.w3.org/2000/svg" xmlns:xlink="http://www.w3.org/1999/xlink" x="0px" y="0px"
	 width="27.963px" height="16.514px" viewBox="0 0 27.963 16.514" enable-background="new 0 0 27.963 16.514" xml:space="preserve">
<g>
	<path fill="#FFFFFF" d="M27.606,7.205c-0.243-0.287-6.045-7.001-13.462-7.001c-7.417,0-13.219,6.715-13.462,7.001
		c-0.478,0.562-0.478,1.376,0,1.938c0.243,0.287,6.044,7.002,13.462,7.002c7.417,0,13.219-6.716,13.462-7.002
		C28.083,8.581,28.083,7.766,27.606,7.205z M16.409,4.237c0.5-0.272,1.195,0.041,1.554,0.698c0.359,0.658,0.245,1.412-0.253,1.684
		c-0.498,0.272-1.194-0.04-1.554-0.697C15.797,5.263,15.911,4.509,16.409,4.237z M14.144,13.71c-5.181,0-9.542-3.979-11.051-5.537
		c1.02-1.052,3.339-3.208,6.334-4.497C8.843,4.565,8.501,5.627,8.501,6.77c0,3.116,2.526,5.643,5.643,5.643s5.643-2.526,5.643-5.643
		c0-1.143-0.343-2.205-0.927-3.093c2.995,1.289,5.314,3.444,6.334,4.497C23.684,9.732,19.325,13.71,14.144,13.71z"/>
</g>
</svg>
