<?xml version="1.0" encoding="utf-8"?>
<!-- Generator: Adobe Illustrator 16.0.0, SVG Export Plug-In . SVG Version: 6.00 Build 0)  -->
<!DOCTYPE svg PUBLIC "-//W3C//DTD SVG 1.1//EN" "http://www.w3.org/Graphics/SVG/1.1/DTD/svg11.dtd">
<svg version="1.1" id="Layer_1" xmlns="http://www.w3.org/2000/svg" xmlns:xlink="http://www.w3.org/1999/xlink" x="0px" y="0px"
	 width="146.164px" height="24.577px" viewBox="0 0 146.164 24.577" enable-background="new 0 0 146.164 24.577"
	 xml:space="preserve">
<g>
	<g>
		<g>
			<path fill="#C42127" d="M14.178,19.884c0,0,87.832-4.555,92.209-6.191c3.686-1.379-16.727-10.067-44.297-8.772
				c-2.439,0.115-4.74,0.306-6.912,0.556c12.872-2.104,29.471-2.144,49.22,3.457c0,0-36.06-17.065-71.892,2.759
				c-3.289,1.623-5.488,3.176-6.759,4.2c-0.385,0.267-0.769,0.536-1.152,0.812c0.18-0.125,0.472-0.324,0.873-0.583
				c-0.739,0.616-1.087,0.989-1.087,0.989c35.377-20.112,74.332-6.219,76.652-4.434C102.791,14.029,14.178,19.884,14.178,19.884z"/>
			<path fill="#C42127" d="M25.581,17.245c-0.156,0.109-0.238,0.17-0.238,0.17C25.422,17.357,25.501,17.302,25.581,17.245z"/>
			<path fill="#C42127" d="M129.65,17.458c0.185-0.375,0.28-0.783,0.28-1.229c0-0.793-0.281-1.471-0.844-2.033
				c-0.562-0.562-1.239-0.843-2.033-0.843c-0.777,0-1.446,0.281-2.008,0.843c-0.563,0.563-0.843,1.24-0.843,2.033
				c0,0.4,0.075,0.773,0.226,1.117C69.56,16.451,1.686,22.888,1.686,22.888c49.379-3.791,97.471-4.357,123.332-4.68
				c1.453-0.019,2.834-0.034,4.139-0.048c9.508-0.099,15.013-0.082,15.013-0.082C139.512,17.792,134.649,17.589,129.65,17.458z"/>
		</g>
	</g>
</g>
</svg>
