<?xml version="1.0" encoding="utf-8"?>
<!-- Generator: Adobe Illustrator 19.2.1, SVG Export Plug-In . SVG Version: 6.00 Build 0)  -->
<svg version="1.1" id="Layer_1" xmlns="http://www.w3.org/2000/svg" xmlns:xlink="http://www.w3.org/1999/xlink" x="0px" y="0px"
	 viewBox="0 0 42.7 34.3" style="enable-background:new 0 0 42.7 34.3;" xml:space="preserve">
<style type="text/css">
	.st0{opacity:0.7;}
	.st1{fill:#FFFFFF;}
</style>
<g class="st0">
	<g>
		<path class="st1" d="M41.8,12.3L41.8,12.3L33.5,1.1l0,0c-0.3-0.3-0.6-0.5-1-0.5H10.2c-0.4,0-0.8,0.2-1,0.5l0,0l-8.3,11
			c0,0,0,0,0,0c0,0,0,0,0,0.1l0,0l0,0c-0.1,0.1-0.1,0.1-0.1,0.2c0,0.1-0.1,0.1-0.1,0.2c-0.2,0.5-0.1,1.1,0.3,1.5l19.5,19.5
			c0.5,0.5,1.4,0.5,2,0l19.5-19.5c0,0,0,0,0,0c0.3-0.3,0.4-0.6,0.4-1C42.2,12.8,42,12.5,41.8,12.3L41.8,12.3z M30,3.4l-2.7,6.1
			L24,3.4H30z M25.5,11.8H17l4.3-7.4L25.5,11.8z M18.6,3.4l-3.4,6.1l-2.7-6.1H18.6L18.6,3.4z M9.9,4.4l3.4,7.3H4.8L9.9,4.4z
			 M5.2,14.6h8.2l4.5,12.7L5.2,14.6z M21.3,28.5l-5-14h10L21.3,28.5z M24.7,27.2l4.5-12.6h8.1L24.7,27.2z M29.3,11.8l3.4-7.3
			l5.1,7.3H29.3z"/>
	</g>
</g>
</svg>
