<?xml version="1.0" encoding="utf-8"?>
<!-- Generator: Adobe Illustrator 19.2.1, SVG Export Plug-In . SVG Version: 6.00 Build 0)  -->
<svg version="1.1" id="Layer_1" xmlns="http://www.w3.org/2000/svg" xmlns:xlink="http://www.w3.org/1999/xlink" x="0px" y="0px"
	 viewBox="0 0 50 50" style="enable-background:new 0 0 50 50;" xml:space="preserve">
<style type="text/css">
	.st0{fill:#FFFFFF;}
</style>
<g>
	<path id="ShareThis_9_" class="st0" d="M-40,24.9c0,0.2,0,0.3,0,0.5l17.1,8.6c1.5-1.2,3.3-2,5.4-2c4.7,0,8.4,3.8,8.4,8.4
		c0,4.7-3.8,8.4-8.4,8.4c-4.7,0-8.4-3.8-8.4-8.4c0-0.2,0-0.3,0-0.5L-43,31.3c-1.5,1.2-3.3,2-5.4,2c-4.7,0-8.4-3.8-8.4-8.4
		c0-4.7,3.8-8.4,8.4-8.4c2.1,0,3.9,0.8,5.4,2l17.1-8.6c0-0.2,0-0.3,0-0.5c0-4.6,3.8-8.4,8.4-8.4c4.7,0,8.4,3.8,8.4,8.4
		c0,4.7-3.8,8.4-8.4,8.4c-2.1,0-3.9-0.8-5.4-2l-17.1,8.6C-40.1,24.6-40,24.7-40,24.9z"/>
</g>
<g>
	<path class="st0" d="M89.3,96.3c-0.3-0.4-8.1-9.4-18-9.4c-9.9,0-17.7,9-18,9.4c-0.6,0.8-0.6,1.8,0,2.6c0.3,0.4,8.1,9.4,18,9.4
		c9.9,0,17.7-9,18-9.4C89.9,98.1,89.9,97,89.3,96.3z M74.3,92.3c0.7-0.4,1.6,0.1,2.1,0.9c0.5,0.9,0.3,1.9-0.3,2.3
		c-0.7,0.4-1.6-0.1-2.1-0.9C73.5,93.7,73.6,92.7,74.3,92.3z M71.3,105c-6.9,0-12.8-5.3-14.8-7.4c1.4-1.4,4.5-4.3,8.5-6
		c-0.8,1.2-1.2,2.6-1.2,4.1c0,4.2,3.4,7.5,7.5,7.5c4.2,0,7.6-3.4,7.6-7.5c0-1.5-0.5-2.9-1.2-4.1c4,1.7,7.1,4.6,8.5,6
		C84,99.7,78.2,105,71.3,105z"/>
</g>
<g>
	<g>
		<g>
			<g>
				<path class="st0" d="M35.8,16.4H14.6c-1.1,0-2-0.9-2-2c0-1.1,0.9-2,2-2h21.2c1.1,0,2,0.9,2,2C37.8,15.5,36.9,16.4,35.8,16.4z"/>
			</g>
			<g>
				<path class="st0" d="M35.8,26.9H14.6c-1.1,0-2-0.9-2-2c0-1.1,0.9-2,2-2h21.2c1.1,0,2,0.9,2,2C37.8,26,36.9,26.9,35.8,26.9z"/>
			</g>
		</g>
		<g>
			<path class="st0" d="M9,49.1c-0.7-0.4-1.1-1.2-1-2l1.2-8.9H6C3.3,38.2,1,36,1,33.3V5.9C1,3.2,3.3,1,6,1h38.5
				c2.7,0,4.9,2.2,4.9,4.9v27.4c0,2.7-2.2,4.9-4.9,4.9H24.4L11.3,48.9C10.3,49.7,9.3,49.3,9,49.1z M6,5C5.5,5,5.1,5.4,5.1,5.9v27.4
				c0,0.5,0.4,0.9,0.9,0.9h5.5c1.6,0.1,2.2,1.6,2,2.3l-0.8,6.1l9.7-7.9c0.4-0.3,0.8-0.5,1.3-0.5h20.8c0.5,0,0.9-0.4,0.9-0.9V5.9
				C45.4,5.4,45,5,44.5,5L6,5L6,5z"/>
		</g>
	</g>
</g>
</svg>
