<?xml version="1.0" encoding="utf-8"?>
<!-- Generator: Adobe Illustrator 16.0.0, SVG Export Plug-In . SVG Version: 6.00 Build 0)  -->
<!DOCTYPE svg PUBLIC "-//W3C//DTD SVG 1.1//EN" "http://www.w3.org/Graphics/SVG/1.1/DTD/svg11.dtd">
<svg version="1.1" id="Layer_1" xmlns="http://www.w3.org/2000/svg" xmlns:xlink="http://www.w3.org/1999/xlink" x="0px" y="0px"
	 width="19px" height="19px" viewBox="0 0 19 19" enable-background="new 0 0 19 19" xml:space="preserve">
<g>
	<g>
		<g>
			<g>
				<path d="M13.53,6.145H5.47c-0.425,0-0.767-0.342-0.767-0.767S5.045,4.61,5.47,4.61h8.061c0.425,0,0.767,0.342,0.767,0.767
					S13.955,6.145,13.53,6.145z"/>
			</g>
			<g>
				<path d="M13.53,10.148H5.47c-0.425,0-0.767-0.342-0.767-0.767c0-0.425,0.342-0.767,0.767-0.767h8.061
					c0.425,0,0.767,0.342,0.767,0.767C14.297,9.806,13.955,10.148,13.53,10.148z"/>
			</g>
		</g>
		<g>
			<path d="M3.319,18.614c-0.274-0.154-0.429-0.459-0.387-0.77l0.454-3.377H2.165c-1.034,0-1.876-0.842-1.876-1.871V2.167
				c0-1.034,0.842-1.876,1.876-1.876h14.674c1.033,0,1.872,0.842,1.872,1.876v10.43c0,1.033-0.842,1.871-1.872,1.871H9.177
				L4.181,18.54C3.815,18.825,3.436,18.679,3.319,18.614z M2.165,1.825c-0.188,0-0.338,0.15-0.338,0.338v10.43
				c0,0.188,0.15,0.338,0.338,0.338h2.105c0.621,0.021,0.822,0.594,0.76,0.869l-0.313,2.318l3.703-3.02
				c0.136-0.111,0.309-0.172,0.485-0.172h7.933c0.188,0,0.338-0.15,0.338-0.338V2.167c0-0.188-0.15-0.338-0.338-0.338H2.165V1.825z"
				/>
		</g>
	</g>
</g>
</svg>
