<?xml version="1.0" encoding="utf-8"?>
<!-- Generator: Adobe Illustrator 19.2.1, SVG Export Plug-In . SVG Version: 6.00 Build 0)  -->
<svg version="1.1" id="Layer_1" xmlns="http://www.w3.org/2000/svg" xmlns:xlink="http://www.w3.org/1999/xlink" x="0px" y="0px"
	 viewBox="0 0 612 792" style="enable-background:new 0 0 612 792;" xml:space="preserve">
<style type="text/css">
	.st0{opacity:0.7;}
</style>
<g class="st0">
	<g>
		<path d="M178.3,339.2c0.1-1.9-0.5-3.8-1.8-5.3l-57.7-65.6c-1.3-1.5-3.1-2.3-5-2.5c-1.9-0.1-3.8,0.5-5.2,1.8
			c-26.5,23.3-48.5,50.8-65.4,81.6c-0.9,1.7-1.2,3.7-0.6,5.5c0.5,1.9,1.8,3.4,3.5,4.3l76.6,41.9c1.1,0.6,2.3,0.9,3.5,0.9
			c2.6,0,5.1-1.4,6.4-3.8c11.2-20.4,25.7-38.6,43.3-54C177.3,342.9,178.2,341.1,178.3,339.2z"/>
		<path d="M204.1,314.9c1.3,2.5,3.8,3.9,6.4,3.9c1.1,0,2.3-0.3,3.4-0.8c20.6-10.9,42.6-18,65.7-21.1c4-0.5,6.8-4.2,6.2-8.2
			L274.1,202c-0.5-4-4.2-6.8-8.2-6.2c-35,4.7-68.6,15.5-99.8,32.1c-3.5,1.9-4.9,6.3-3,9.8L204.1,314.9z"/>
		<path d="M110.3,432.1L26,409.2c-1.9-0.5-3.9-0.2-5.6,0.7c-1.7,1-2.9,2.5-3.4,4.4c-6.9,25.5-10.4,52-10.4,78.7
			c0,4.6,0.1,9.2,0.3,14c0.2,3.9,3.4,6.9,7.2,6.9c0.1,0,0.2,0,0.2,0l87.4-4c1.9-0.1,3.8-1,5-2.4c1.3-1.4,2-3.3,1.9-5.2
			c-0.1-3.3-0.2-6.3-0.2-9.3c0-17.7,2.3-35.2,6.9-52C116.4,437.1,114.2,433.1,110.3,432.1z"/>
		<path d="M436.7,222.7c-31.8-15.3-65.8-24.8-100.9-28.2c-1.9-0.2-3.8,0.4-5.3,1.6c-1.5,1.2-2.4,3-2.6,4.9l-8.4,87
			c-0.4,4,2.6,7.6,6.6,7.9c23.2,2.3,45.6,8.5,66.5,18.6c1,0.5,2.1,0.7,3.2,0.7c0.8,0,1.6-0.2,2.4-0.4c1.8-0.6,3.3-2,4.2-3.7
			l37.9-78.7C441.8,228.8,440.3,224.4,436.7,222.7z"/>
		<path d="M565,344.8c0.5-1.9,0.2-3.9-0.8-5.5c-18.1-30.2-41.1-56.9-68.5-79.1c-1.5-1.2-3.4-1.8-5.3-1.6c-1.9,0.2-3.7,1.1-4.9,2.7
			L430.4,329c-1.2,1.5-1.8,3.4-1.6,5.3c0.2,1.9,1.1,3.7,2.6,4.9c18.1,14.7,33.4,32.3,45.3,52.3c1.4,2.3,3.8,3.5,6.2,3.5
			c1.2,0,2.5-0.3,3.7-1l75-44.8C563.3,348.3,564.5,346.7,565,344.8z"/>
		<path d="M592.8,403.2c-1.2-3.9-5.3-6-9.1-4.8l-83.3,26.1c-3.9,1.2-6,5.3-4.8,9.1c6,19.1,9,39.1,9,59.3c0,3-0.1,6-0.2,9.3
			c-0.1,1.9,0.6,3.8,1.9,5.2c1.3,1.4,3.1,2.3,5,2.4l87.3,4l0.3,0c3.9,0,7.1-3,7.2-6.9c0.2-4.9,0.4-9.4,0.4-14
			C606.5,462.4,601.9,432.2,592.8,403.2z"/>
		<path d="M306.3,477.6c-1.2,0-2.5,0-3.7,0.1l-118.3-69.8c-2.9-1.7-6.6-1.3-9,1c-2.4,2.3-3,6-1.5,8.9l64.5,120.9
			c-0.2,2.3-0.4,4.7-0.4,7.1c0,18.2,7.1,35.4,20,48.3c12.9,12.9,30,20,48.3,20c18.2,0,35.4-7.1,48.3-20c12.9-12.9,20-30,20-48.3
			s-7.2-35.4-20-48.3C341.7,484.7,324.5,477.6,306.3,477.6z"/>
	</g>
</g>
</svg>
