<?xml version="1.0" encoding="utf-8"?>
<!-- Generator: Adobe Illustrator 19.2.1, SVG Export Plug-In . SVG Version: 6.00 Build 0)  -->
<svg version="1.1" id="Layer_1" xmlns="http://www.w3.org/2000/svg" xmlns:xlink="http://www.w3.org/1999/xlink" x="0px" y="0px"
	 viewBox="0 0 612 792" style="enable-background:new 0 0 612 792;" xml:space="preserve">
<style type="text/css">
	.st0{opacity:0.52;}
	.st1{fill:#FFFFFF;}
</style>
<g class="st0">
	<g>
		<path class="st1" d="M88.5,580.7c4.3,3,21,11.2,35.1-6.5L219,434.8l101,97.4c5.3,5.1,12.6,7.8,20,6.9c7.3-0.7,14-4.6,18.3-10.6
			l167.5-240.1l6.1,80.3c1.5,20.4,20.6,23.7,27.1,23.2c13.8-1.1,24.3-13.1,23.2-27.1l-10.6-141.3c-1-13.8-13.1-24.3-27.1-23.2
			L403.2,211c-13.8,1-24.3,13.1-23.2,27.1c1,13.8,13,24.2,27.1,23.2l80.3-6.1l-153.5,220l-101.2-97.6c-5.3-5.2-12.7-7.8-20-6.9
			c-7.4,0.7-14.1,4.7-18.3,10.9L82,545.6C74.1,557.1,77.1,572.8,88.5,580.7L88.5,580.7z"/>
		<path class="st1" d="M583.5,648.2H53.6V118.3c0-14-11.2-25.2-25.2-25.2S3.2,104.3,3.2,118.3v555.1c0,14,11.2,25.2,25.2,25.2h555.1
			c14,0,25.2-11.2,25.2-25.2S597.5,648.2,583.5,648.2z"/>
	</g>
</g>
</svg>
