<?xml version="1.0" encoding="utf-8"?>
<!-- Generator: Adobe Illustrator 19.2.1, SVG Export Plug-In . SVG Version: 6.00 Build 0)  -->
<svg version="1.1" id="Layer_1" xmlns="http://www.w3.org/2000/svg" xmlns:xlink="http://www.w3.org/1999/xlink" x="0px" y="0px"
	 viewBox="0 0 50 50" style="enable-background:new 0 0 50 50;" xml:space="preserve">
<style type="text/css">
	.st0{fill:#FFFFFF;}
</style>
<g>
	<path class="st0" d="M4.6,26.8h3.8c1,0,1.8,0.8,1.8,1.7C11,36,17.3,41.7,24.9,41.7c8.2,0,14.8-6.6,14.8-14.8
		c0-8.1-6.7-14.6-14.7-14.8v2.4c0,1.1-0.8,1.6-1.7,1.1L11,9.4c-1-0.5-1-1.3,0-1.8l12.3-6.3c1-0.5,1.7,0,1.7,1.1v2.4
		C37.1,5,47.1,14.8,47.1,27c0,12.2-9.9,22.1-22.2,22.1c-11.7,0-21.3-9.1-22.1-20.6C2.8,27.6,3.6,26.8,4.6,26.8z"/>
</g>
</svg>
