<?xml version="1.0" encoding="utf-8"?>
<!-- Generator: Adobe Illustrator 19.2.1, SVG Export Plug-In . SVG Version: 6.00 Build 0)  -->
<svg version="1.1" id="Layer_1" xmlns="http://www.w3.org/2000/svg" xmlns:xlink="http://www.w3.org/1999/xlink" x="0px" y="0px"
	 viewBox="0 0 612 400" style="enable-background:new 0 0 612 400;" xml:space="preserve">
<style type="text/css">
	.st0{fill:#FFFFFF;}
</style>
<g>
	<rect x="1" y="72.8" class="st0" width="603.8" height="251.2"/>
	<path class="st0" d="M414.3,195.6h9.4c2.4,0,4.3,1.9,4.4,4.2C430,217.9,445.4,232,464,232c20,0,36.1-16.2,36.1-36.1
		c0-19.8-16.3-35.8-36-36.1v5.9c0,2.7-1.9,3.9-4.2,2.7L429.8,153c-2.3-1.2-2.3-3.1,0-4.3l30.1-15.4c2.3-1.2,4.2,0,4.2,2.7v5.9
		c29.7,0.3,54.1,24.4,54.1,54.1c0,29.9-24.3,54.1-54.2,54.1c-28.6,0-52.1-22.2-54.1-50.3C409.9,197.5,411.9,195.6,414.3,195.6z"/>
</g>
</svg>
