<?xml version="1.0" encoding="utf-8"?>
<!-- Generator: Adobe Illustrator 19.2.1, SVG Export Plug-In . SVG Version: 6.00 Build 0)  -->
<svg version="1.1" id="Layer_1" xmlns="http://www.w3.org/2000/svg" xmlns:xlink="http://www.w3.org/1999/xlink" x="0px" y="0px"
	 viewBox="0 0 612 792" style="enable-background:new 0 0 612 792;" xml:space="preserve">
<style type="text/css">
	.st0{opacity:0.6;}
	.st1{fill:#FFFFFF;}
</style>
<g class="st0">
	<path id="ShareThis_10_" class="st1" d="M219.8,363.7c0,2-0.5,3.9-0.6,5.9l211.9,105.9c18.1-15.3,41.3-24.9,67-24.9
		c57.6,0,104.4,46.7,104.4,104.4c0,57.7-46.7,104.4-104.4,104.4c-57.7,0-104.3-46.7-104.3-104.4c0-2.1,0.5-4,0.6-6L182.4,443.2
		c-18.2,15.3-41.3,24.9-67,24.9c-57.6,0-104.4-46.7-104.4-104.3c0-57.7,46.7-104.4,104.4-104.4c25.6,0,48.8,9.7,67,25l211.9-105.9
		c-0.1-2-0.6-3.9-0.6-6c0-57.6,46.6-104.3,104.3-104.3c57.6,0,104.4,46.7,104.4,104.3c0,57.7-46.7,104.4-104.4,104.4
		c-25.7,0-48.8-9.6-67-25l-211.9,106C219.3,359.8,219.8,361.7,219.8,363.7z"/>
</g>
</svg>
