<?xml version="1.0" encoding="utf-8"?>
<!-- Generator: Adobe Illustrator 16.0.0, SVG Export Plug-In . SVG Version: 6.00 Build 0)  -->
<!DOCTYPE svg PUBLIC "-//W3C//DTD SVG 1.1//EN" "http://www.w3.org/Graphics/SVG/1.1/DTD/svg11.dtd">
<svg version="1.1" id="Layer_1" xmlns="http://www.w3.org/2000/svg" xmlns:xlink="http://www.w3.org/1999/xlink" x="0px" y="0px"
	 width="23.5px" height="19px" viewBox="0 0 23.5 19" enable-background="new 0 0 23.5 19" xml:space="preserve">
<g>
	<path fill="#231F20" d="M22.771,8.52c-0.2-0.235-4.972-5.758-11.072-5.758c-6.101,0-10.873,5.523-11.073,5.758
		c-0.393,0.462-0.393,1.132,0.001,1.594c0.199,0.235,4.971,5.758,11.072,5.758c6.101,0,10.872-5.522,11.072-5.758
		C23.165,9.652,23.165,8.982,22.771,8.52z M13.563,6.08c0.41-0.224,0.981,0.033,1.277,0.574c0.295,0.541,0.202,1.161-0.208,1.385
		c-0.41,0.224-0.982-0.033-1.278-0.574C13.06,6.924,13.151,6.303,13.563,6.08z M11.699,13.871c-4.262,0-7.848-3.272-9.089-4.554
		c0.839-0.865,2.747-2.638,5.21-3.698C7.339,6.35,7.059,7.223,7.059,8.163c0,2.563,2.077,4.641,4.641,4.641
		c2.563,0,4.642-2.077,4.642-4.641c0-0.94-0.281-1.813-0.762-2.544c2.462,1.061,4.37,2.833,5.208,3.698
		C19.547,10.6,15.96,13.871,11.699,13.871z"/>
</g>
</svg>
