<?xml version="1.0" encoding="utf-8"?>
<!-- Generator: Adobe Illustrator 16.0.0, SVG Export Plug-In . SVG Version: 6.00 Build 0)  -->
<!DOCTYPE svg PUBLIC "-//W3C//DTD SVG 1.1//EN" "http://www.w3.org/Graphics/SVG/1.1/DTD/svg11.dtd">
<svg version="1.1" id="Layer_1" xmlns="http://www.w3.org/2000/svg" xmlns:xlink="http://www.w3.org/1999/xlink" x="0px" y="0px"
	 width="19px" height="19px" viewBox="0 0 19 19" enable-background="new 0 0 19 19" xml:space="preserve">
<g>
	<path id="ShareThis_20_" d="M6.647,9.5c0,0.055-0.014,0.107-0.018,0.162l5.792,2.896c0.496-0.42,1.13-0.682,1.831-0.682
		c1.575,0,2.853,1.276,2.853,2.852c0,1.577-1.277,2.854-2.853,2.854c-1.576,0-2.852-1.276-2.852-2.854
		c0-0.057,0.013-0.107,0.016-0.162l-5.791-2.895c-0.498,0.418-1.13,0.68-1.831,0.68c-1.575,0-2.853-1.275-2.853-2.851
		c0-1.577,1.277-2.854,2.853-2.854c0.701,0,1.333,0.264,1.831,0.682l5.791-2.895c-0.003-0.055-0.016-0.107-0.016-0.164
		c0-1.574,1.275-2.851,2.852-2.851c1.575,0,2.853,1.277,2.853,2.851c0,1.577-1.277,2.854-2.853,2.854
		c-0.702,0-1.335-0.264-1.831-0.684L6.63,9.336C6.634,9.391,6.647,9.443,6.647,9.5z"/>
</g>
</svg>
