<?xml version="1.0" encoding="utf-8"?>
<!-- Generator: Adobe Illustrator 19.2.1, SVG Export Plug-In . SVG Version: 6.00 Build 0)  -->
<svg version="1.1" id="Layer_1" xmlns="http://www.w3.org/2000/svg" xmlns:xlink="http://www.w3.org/1999/xlink" x="0px" y="0px"
	 viewBox="0 0 50 50" style="enable-background:new 0 0 50 50;" xml:space="preserve">
<style type="text/css">
	.st0{fill:#FFFFFF;}
</style>
<g>
	<path id="ShareThis_9_" class="st0" d="M17.9,24.9c0,0.2,0,0.3,0,0.5l17.1,8.6c1.5-1.2,3.3-2,5.4-2c4.7,0,8.4,3.8,8.4,8.4
		c0,4.7-3.8,8.4-8.4,8.4c-4.7,0-8.4-3.8-8.4-8.4c0-0.2,0-0.3,0-0.5l-17.1-8.6c-1.5,1.2-3.3,2-5.4,2c-4.7,0-8.4-3.8-8.4-8.4
		c0-4.7,3.8-8.4,8.4-8.4c2.1,0,3.9,0.8,5.4,2l17.1-8.6c0-0.2,0-0.3,0-0.5c0-4.6,3.8-8.4,8.4-8.4c4.7,0,8.4,3.8,8.4,8.4
		c0,4.7-3.8,8.4-8.4,8.4c-2.1,0-3.9-0.8-5.4-2l-17.1,8.6C17.8,24.6,17.9,24.7,17.9,24.9z"/>
</g>
<g>
	<path class="st0" d="M89.3,96.3c-0.3-0.4-8.1-9.4-18-9.4c-9.9,0-17.7,9-18,9.4c-0.6,0.8-0.6,1.8,0,2.6c0.3,0.4,8.1,9.4,18,9.4
		c9.9,0,17.7-9,18-9.4C89.9,98.1,89.9,97,89.3,96.3z M74.3,92.3c0.7-0.4,1.6,0.1,2.1,0.9c0.5,0.9,0.3,1.9-0.3,2.3
		c-0.7,0.4-1.6-0.1-2.1-0.9C73.5,93.7,73.6,92.7,74.3,92.3z M71.3,105c-6.9,0-12.8-5.3-14.8-7.4c1.4-1.4,4.5-4.3,8.5-6
		c-0.8,1.2-1.2,2.6-1.2,4.1c0,4.2,3.4,7.5,7.5,7.5c4.2,0,7.6-3.4,7.6-7.5c0-1.5-0.5-2.9-1.2-4.1c4,1.7,7.1,4.6,8.5,6
		C84,99.7,78.2,105,71.3,105z"/>
</g>
<g>
	<g>
		<g>
			<g>
				<path class="st0" d="M77.5,48.8H65.1c-0.7,0-1.2-0.5-1.2-1.2c0-0.7,0.5-1.2,1.2-1.2h12.3c0.7,0,1.2,0.5,1.2,1.2
					C78.6,48.3,78.1,48.8,77.5,48.8z"/>
			</g>
			<g>
				<path class="st0" d="M77.5,54.9H65.1c-0.7,0-1.2-0.5-1.2-1.2c0-0.7,0.5-1.2,1.2-1.2h12.3c0.7,0,1.2,0.5,1.2,1.2
					C78.6,54.4,78.1,54.9,77.5,54.9z"/>
			</g>
		</g>
		<g>
			<path class="st0" d="M61.8,67.9c-0.4-0.2-0.7-0.7-0.6-1.2l0.7-5.2H60c-1.6,0-2.9-1.3-2.9-2.9v-16c0-1.6,1.3-2.9,2.9-2.9h22.5
				c1.6,0,2.9,1.3,2.9,2.9v16c0,1.6-1.3,2.9-2.9,2.9H70.8l-7.7,6.2C62.6,68.2,62,68,61.8,67.9z M60,42.2c-0.3,0-0.5,0.2-0.5,0.5v16
				c0,0.3,0.2,0.5,0.5,0.5h3.2c0.9,0,1.3,0.9,1.2,1.3L64,64.1l5.7-4.6c0.2-0.2,0.5-0.3,0.7-0.3h12.2c0.3,0,0.5-0.2,0.5-0.5v-16
				c0-0.3-0.2-0.5-0.5-0.5L60,42.2L60,42.2z"/>
		</g>
	</g>
</g>
</svg>
