<?xml version="1.0" encoding="utf-8"?>
<!-- Generator: Adobe Illustrator 19.2.1, SVG Export Plug-In . SVG Version: 6.00 Build 0)  -->
<svg version="1.1" id="Layer_1" xmlns="http://www.w3.org/2000/svg" xmlns:xlink="http://www.w3.org/1999/xlink" x="0px" y="0px"
	 viewBox="0 0 50 24.8" style="enable-background:new 0 0 50 24.8;" xml:space="preserve">
<style type="text/css">
	.st0{fill:#C42127;}
	.st1{fill:#FFFFFF;}
</style>
<g>
	<path class="st0" d="M23.2,8.4l-1.4-0.7c0,0-0.6,1.2-0.4,0.2c-1.1,0.9-1.6,1.7-1.6,3v3.8c0,0.9,0.4,1.8,0.9,2.4v1.5
		c0,0.9,0.7,1.6,1.6,1.6h1.9c0.9,0,1.6-0.7,1.6-1.6v-0.4h8.7h0h0h8.7v0.4c0,0.9,0.7,1.6,1.6,1.6h1.9c0.9,0,1.6-0.7,1.6-1.6V17
		c0.6-0.6,0.9-1.5,0.9-2.4v-3.8c0-1.3-0.7-3-1.8-4c0,0,0,0-0.1-0.1l-1-1c0.9-0.2,1.8-0.9,1.8-1.7c0-0.9-1.2-1.2-2.2-1.2
		c-1.1,0-1.2,0.7-1.2,1.2l-2.7-2.6c-0.5-0.5-1.6-1-2.3-1h-5.2h0h0h-5.2c-0.8,0-1.8,0.4-2.3,1l-2.7,2.6c0-0.5-0.1-1.2-1.2-1.2
		 M28.1,2.7c0.4-0.3,1-0.6,1.4-0.6h5.2h0h0h5.2c0.3,0,1,0.2,1.4,0.6l3.5,3.4H34.6h0h0H24.6L28.1,2.7z M21,10.2
		c0-0.9,0.7-1.7,1.6-1.7c0.9,0,3.9,1.7,3.9,2.7c0,0.9-2.9,0.7-3.9,0.7C21.8,11.9,21,11.2,21,10.2z M25.9,16.4h-0.3h-0.3l-1.8,0
		c-0.5-0.2-0.9-0.3-1.1-0.5c-0.1-0.1-0.2-0.2-0.3-0.3c-0.1-0.1-0.1-0.2-0.2-0.3c-0.2-0.6,0.2-1.2,0.2-1.2h3.2l2.1,2.4L25.9,16.4z
		 M39.2,16.4h-4.5h0h0h-4.5c-0.9,0-1.7-0.8-1.7-1.7h6.2h0h0h6.2C40.9,15.7,40.1,16.4,39.2,16.4z M39.6,13.5h-4.9h0h0h-4.9
		c-1,0-1.9-1.3-1.9-2.8h6.8h0h0h6.8C41.4,12.3,40.6,13.5,39.6,13.5z M47.4,15.2c0,0.1-0.1,0.2-0.2,0.3c-0.1,0.1-0.2,0.2-0.3,0.3
		c-0.3,0.2-0.6,0.4-1.1,0.5l-1.8,0h-0.3h-0.3l-1.4,0L44,14h3.2C47.2,14,47.6,14.6,47.4,15.2z M46.6,11.9c-0.9,0-3.9,0.2-3.9-0.7
		c0-0.9,2.9-2.7,3.9-2.7c0.9,0,1.6,0.8,1.6,1.7C48.2,11.2,47.5,11.9,46.6,11.9z"/>
	<g>
		<path class="st0" d="M30.3,9.4C30.3,9.4,30.3,9.3,30.3,9.4l-1.1-1.1C30.1,8.1,31,7.4,31,6.7c0-0.9-1.2-1.2-2.2-1.2
			c-1.1,0-1.2,0.7-1.2,1.2l-2.7-2.6c-0.5-0.5-1.6-1-2.3-1h-5.2h0h0h-5.2c-0.8,0-1.8,0.4-2.3,1L7.1,6.7c0-0.5-0.1-1.2-1.2-1.2
			c-1,0-2.2,0.3-2.2,1.2c0,0.7,0.9,1.5,1.8,1.7l-1,1c0,0,0,0-0.1,0.1c-1.1,0.9-1.8,2.7-1.8,4v3.8c0,0.9,0.4,1.8,0.9,2.4V21
			c0,0.9,0.7,1.6,1.6,1.6H7c0.9,0,1.6-0.7,1.6-1.6v-0.4h8.7h0h0H26V21c0,0.9,0.7,1.6,1.6,1.6h1.9c0.9,0,1.6-0.7,1.6-1.6v-1.5
			c0.6-0.6,0.9-1.5,0.9-2.4v-3.8C32.1,12.1,31.4,10.3,30.3,9.4z M10.7,5.3c0.4-0.3,1-0.6,1.4-0.6h5.2h0h0h5.2c0.3,0,1,0.2,1.4,0.6
			l3.5,3.4H17.3h0h0H7.2L10.7,5.3z M3.7,12.8c0-0.9,0.7-1.7,1.6-1.7c0.9,0,3.9,1.7,3.9,2.7c0,0.9-2.9,0.7-3.9,0.7
			C4.5,14.5,3.7,13.7,3.7,12.8z M8.6,19H8.3H8l-1.8,0c-0.5-0.2-0.9-0.3-1.1-0.5c-0.1-0.1-0.2-0.2-0.3-0.3c-0.1-0.1-0.1-0.2-0.2-0.3
			c-0.2-0.6,0.2-1.2,0.2-1.2h3.1L10,19L8.6,19z M21.9,19h-4.5h0h0h-4.5c-0.9,0-1.7-0.8-1.7-1.7h6.2h0h0h6.2
			C23.6,18.2,22.8,19,21.9,19z M22.3,16.1h-4.9h0h0h-4.9c-1,0-1.9-1.3-1.9-2.8h6.8h0h0h6.8C24.1,14.8,23.3,16.1,22.3,16.1z
			 M30.1,17.8c0,0.1-0.1,0.2-0.2,0.3c-0.1,0.1-0.2,0.2-0.3,0.3c-0.3,0.2-0.6,0.4-1.1,0.5l-1.8,0h-0.3H26l-1.4,0l2.1-2.4h3.2
			C29.9,16.6,30.3,17.2,30.1,17.8z M29.3,14.5c-0.9,0-3.9,0.2-3.9-0.7c0-0.9,2.9-2.7,3.9-2.7c0.9,0,1.6,0.8,1.6,1.7
			C30.9,13.7,30.2,14.5,29.3,14.5z"/>
		<path class="st1" d="M22.5,3.2c0.8,0,1.8,0.4,2.3,1l2.7,2.6c0-0.5,0.1-1.2,1.2-1.2c1,0,2.2,0.3,2.2,1.2c0,0.7-0.9,1.5-1.8,1.7l1,1
			c0,0,0,0,0.1,0.1c1.1,0.9,1.8,2.7,1.8,4v3.8c0,0.9-0.4,1.8-1,2.4V21c0,0.9-0.7,1.6-1.6,1.6h-1.9c-0.9,0-1.6-0.7-1.6-1.6v-0.4h-8.7
			h0h0H8.6V21c0,0.9-0.7,1.6-1.6,1.6H5.1c-0.9,0-1.6-0.7-1.6-1.6v-1.5c-0.6-0.6-1-1.5-1-2.4v-3.8c0-1.3,0.7-3,1.8-4c0,0,0,0,0.1-0.1
			l1-1C4.6,8.1,3.7,7.4,3.7,6.7c0-0.9,1.2-1.2,2.2-1.2c1.1,0,1.2,0.7,1.2,1.2l2.7-2.6c0.5-0.5,1.6-1,2.3-1h5.2h0h0H22.5 M7.2,8.7
			h10.1h0h0h10.1l-3.5-3.4c-0.4-0.3-1-0.6-1.4-0.6h-5.2h0h0h-5.2c-0.3,0-1,0.2-1.4,0.6L7.2,8.7 M28,14.5c0.5,0,1,0,1.3,0
			c0.9,0,1.6-0.8,1.6-1.7c0-0.9-0.7-1.7-1.6-1.7c-0.9,0-3.9,1.7-3.9,2.7C25.4,14.4,26.8,14.5,28,14.5 M6.7,14.5
			c1.2,0,2.5-0.1,2.5-0.7c0-0.9-2.9-2.7-3.9-2.7s-1.6,0.8-1.6,1.7c0,0.9,0.7,1.7,1.6,1.7C5.6,14.5,6.1,14.5,6.7,14.5 M12.4,16.1h4.9
			h0h0h4.9c1,0,1.9-1.3,1.9-2.8h-6.8h0h0h-6.8C10.5,14.8,11.4,16.1,12.4,16.1 M26,19h0.3h0.3l1.8,0c0.5-0.2,0.9-0.3,1.1-0.5
			c0.1-0.1,0.2-0.2,0.3-0.3c0.1-0.1,0.1-0.2,0.2-0.3c0.2-0.6-0.2-1.2-0.2-1.2h-3.2L24.6,19L26,19 M6.2,19L8,19h0.3h0.3l1.4,0
			l-2.1-2.4H4.8c0,0-0.5,0.6-0.2,1.2c0,0.1,0.1,0.2,0.2,0.3c0.1,0.1,0.2,0.2,0.3,0.3C5.3,18.6,5.6,18.8,6.2,19 M12.8,19h4.5h0h0h4.5
			c0.9,0,1.7-0.8,1.7-1.7h-6.2h0h0h-6.2C11.1,18.2,11.9,19,12.8,19 M22.5,1.5h-5.2h-5.2c-1.2,0-2.7,0.6-3.5,1.5L7.3,4.1
			C6.9,3.9,6.4,3.8,5.9,3.8C3.2,3.8,2,5.2,2,6.7C2,7.4,2.3,8,2.7,8.6c-1.1,1.3-1.9,3.2-1.9,4.8v3.8c0,1.1,0.3,2.1,1,3V21
			c0,1.8,1.5,3.3,3.3,3.3H7c1.3,0,2.5-0.8,3-1.9h7.3h7.3c0.5,1.1,1.7,1.9,3,1.9h1.9c1.8,0,3.3-1.5,3.3-3.3v-0.9c0.6-0.9,1-1.9,1-3
			v-3.8c0-1.6-0.8-3.5-1.9-4.8c0.5-0.5,0.8-1.2,0.8-1.9c0-1.4-1.2-2.9-3.9-2.9c-0.5,0-1,0.1-1.5,0.3l-1.2-1.2
			C25.2,2.1,23.8,1.5,22.5,1.5L22.5,1.5z M12.2,6.5h5.1h5.1c0.1,0,0.2,0.1,0.3,0.1L23.2,7h-5.9h-5.9l0.4-0.4
			C11.9,6.5,12.1,6.5,12.2,6.5L12.2,6.5z"/>
	</g>
</g>
</svg>
