<?xml version="1.0" encoding="utf-8"?>
<!-- Generator: Adobe Illustrator 16.0.0, SVG Export Plug-In . SVG Version: 6.00 Build 0)  -->
<!DOCTYPE svg PUBLIC "-//W3C//DTD SVG 1.1//EN" "http://www.w3.org/Graphics/SVG/1.1/DTD/svg11.dtd">
<svg version="1.1" id="Layer_1" xmlns="http://www.w3.org/2000/svg" xmlns:xlink="http://www.w3.org/1999/xlink" x="0px" y="0px"
	 width="14.15px" height="13.5px" viewBox="0 0 14.15 13.5" enable-background="new 0 0 14.15 13.5" xml:space="preserve">
<g>
	<path fill="#FAAF40" d="M13.44,4.627L9.57,4.261c-0.244-0.022-0.454-0.177-0.555-0.41L7.63,0.492c-0.222-0.554-1.009-0.554-1.23,0
		L5.024,3.851C4.936,4.084,4.714,4.239,4.47,4.261L0.601,4.627c-0.576,0.055-0.81,0.776-0.377,1.164L3.14,8.351
		c0.188,0.168,0.266,0.41,0.211,0.654l-0.876,3.594c-0.134,0.564,0.477,1.029,0.987,0.73l3.226-1.896
		c0.211-0.121,0.466-0.121,0.677,0l3.227,1.896c0.51,0.299,1.119-0.154,0.986-0.73l-0.865-3.594
		c-0.055-0.244,0.022-0.486,0.211-0.654l2.916-2.559C14.26,5.403,14.017,4.683,13.44,4.627z"/>
</g>
</svg>
