<?xml version="1.0" encoding="utf-8"?>
<!-- Generator: Adobe Illustrator 19.2.1, SVG Export Plug-In . SVG Version: 6.00 Build 0)  -->
<svg version="1.1" id="Layer_1" xmlns="http://www.w3.org/2000/svg" xmlns:xlink="http://www.w3.org/1999/xlink" x="0px" y="0px"
	 viewBox="0 0 9.1 8.8" style="enable-background:new 0 0 9.1 8.8;" xml:space="preserve">
<style type="text/css">
	.st0{opacity:0.52;}
	.st1{fill:#F1F1F2;}
	.st2{fill:#FFFFFF;}
</style>
<g class="st0">
	<g id="New_x5F_Post_1_">
		<g>
			<path class="st1" d="M-24.5,4.1c-0.2,0-0.4,0.2-0.4,0.4v3h-5.8V1.7h3c0.2,0,0.4-0.2,0.4-0.4S-27.4,1-27.6,1h-3.3
				c-0.3,0-0.5,0.2-0.5,0.5v6.3c0,0.3,0.2,0.5,0.5,0.5h6.3c0.3,0,0.5-0.2,0.5-0.5V4.5C-24.1,4.3-24.3,4.1-24.5,4.1z M-23.7,1.6l-1-1
				c-0.1-0.1-0.1-0.1-0.2-0.1c-0.1,0-0.1,0-0.2,0.1l-4,4V6h1.5l4-4c0.1-0.1,0.1-0.1,0.1-0.2C-23.6,1.7-23.7,1.7-23.7,1.6z M-28,5.3
				h-0.5V4.8l3.5-3.5l0.5,0.5L-28,5.3z"/>
		</g>
	</g>
</g>
<g class="st0">
	<g>
		<path class="st2" d="M1.7,6.7c0.1,0,0.3,0.1,0.5-0.1l1.3-1.8l1.3,1.3C4.8,6.1,4.9,6.2,5,6.2c0.1,0,0.2-0.1,0.2-0.1l2.2-3.1
			l0.1,1.1c0,0.3,0.3,0.3,0.4,0.3c0.2,0,0.3-0.2,0.3-0.4L8,2c0-0.2-0.2-0.3-0.4-0.3L5.8,1.9C5.6,1.9,5.5,2,5.5,2.2
			c0,0.2,0.2,0.3,0.4,0.3l1.1-0.1l-2,2.9L3.6,4C3.5,4,3.4,3.9,3.3,4C3.2,4,3.1,4,3.1,4.1L1.6,6.2C1.5,6.4,1.5,6.6,1.7,6.7L1.7,6.7z"
			/>
		<path class="st2" d="M8.2,7.6H1.2V0.6c0-0.2-0.1-0.3-0.3-0.3S0.6,0.5,0.6,0.6v7.3c0,0.2,0.1,0.3,0.3,0.3h7.3
			c0.2,0,0.3-0.1,0.3-0.3C8.5,7.7,8.4,7.6,8.2,7.6z"/>
	</g>
</g>
</svg>
