<?xml version="1.0" encoding="utf-8"?>
<!-- Generator: Adobe Illustrator 16.0.0, SVG Export Plug-In . SVG Version: 6.00 Build 0)  -->
<!DOCTYPE svg PUBLIC "-//W3C//DTD SVG 1.1//EN" "http://www.w3.org/Graphics/SVG/1.1/DTD/svg11.dtd">
<svg version="1.1" id="Layer_1" xmlns="http://www.w3.org/2000/svg" xmlns:xlink="http://www.w3.org/1999/xlink" x="0px" y="0px"
	 width="22.596px" height="18.092px" viewBox="0 0 22.596 18.092" enable-background="new 0 0 22.596 18.092" xml:space="preserve">
<g>
	<g>
		<g>
			<path fill="#FFFFFF" d="M8.037,0H3.134C2.006,0,1.052,0.955,1.052,2.083v3.645c0,1.128,0.954,2.083,2.082,2.083h4.902
				c1.129,0,2.084-0.955,2.084-2.083V2.083C10.121,0.955,9.166,0,8.037,0z M8.21,5.727C8.21,5.814,8.125,5.9,8.037,5.9H3.134
				C3.048,5.9,2.96,5.814,2.96,5.727V2.083c0-0.086,0.088-0.174,0.174-0.174h4.902c0.088,0,0.174,0.087,0.174,0.174V5.727z"/>
			<path fill="#FFFFFF" d="M19.578,0h-4.858c-1.128,0-2.083,0.955-2.083,2.083v3.645c0,1.128,0.955,2.083,2.083,2.083h4.858
				c1.129,0,2.083-0.955,2.083-2.083V2.083C21.661,0.955,20.707,0,19.578,0z M19.795,5.727c0,0.087-0.13,0.173-0.218,0.173h-4.858
				c-0.087,0-0.174-0.086-0.174-0.173V2.083c0-0.086,0.087-0.174,0.174-0.174h4.858c0.088,0,0.218,0.087,0.218,0.174V5.727z"/>
			<path fill="#FFFFFF" d="M8.037,10.326H3.134c-1.128,0-2.082,0.954-2.082,2.082v3.602c0,1.128,0.954,2.082,2.082,2.082h4.902
				c1.129,0,2.084-0.954,2.084-2.082v-3.602C10.121,11.28,9.166,10.326,8.037,10.326z M8.21,16.01c0,0.086-0.086,0.217-0.174,0.217
				H3.134c-0.086,0-0.174-0.131-0.174-0.217v-3.602c0-0.086,0.088-0.173,0.174-0.173h4.902c0.088,0,0.174,0.087,0.174,0.173V16.01z"
				/>
			<path fill="#FFFFFF" d="M19.578,10.326h-4.858c-1.128,0-2.083,0.954-2.083,2.082v3.602c0,1.128,0.955,2.082,2.083,2.082h4.858
				c1.129,0,2.083-0.954,2.083-2.082v-3.602C21.661,11.28,20.707,10.326,19.578,10.326z M19.795,16.01
				c0,0.086-0.13,0.217-0.218,0.217h-4.858c-0.087,0-0.174-0.131-0.174-0.217v-3.602c0-0.086,0.087-0.173,0.174-0.173h4.858
				c0.088,0,0.218,0.087,0.218,0.173V16.01z"/>
		</g>
	</g>
</g>
</svg>
