<?xml version="1.0" encoding="utf-8"?>
<!-- Generator: Adobe Illustrator 19.2.1, SVG Export Plug-In . SVG Version: 6.00 Build 0)  -->
<svg version="1.1" id="Layer_1" xmlns="http://www.w3.org/2000/svg" xmlns:xlink="http://www.w3.org/1999/xlink" x="0px" y="0px"
	 viewBox="0 0 50 35" style="enable-background:new 0 0 50 35;" xml:space="preserve">
<style type="text/css">
	.st0{opacity:0.7;}
	.st1{fill:#FFFFFF;}
</style>
<g class="st0">
	<g>
		<path class="st1" d="M14.7,12.5c0-0.2,0-0.3-0.1-0.4L9.9,6.8C9.8,6.7,9.7,6.7,9.5,6.6c-0.2,0-0.3,0-0.4,0.1
			C7,8.7,5.2,10.9,3.9,13.4c-0.1,0.1-0.1,0.3,0,0.4c0,0.1,0.1,0.3,0.3,0.3l6.2,3.4c0.1,0,0.2,0.1,0.3,0.1c0.2,0,0.4-0.1,0.5-0.3
			c0.9-1.6,2.1-3.1,3.5-4.3C14.6,12.8,14.7,12.7,14.7,12.5z"/>
		<path class="st1" d="M16.8,10.6c0.1,0.2,0.3,0.3,0.5,0.3c0.1,0,0.2,0,0.3-0.1c1.7-0.9,3.4-1.4,5.3-1.7c0.3,0,0.5-0.3,0.5-0.7
			l-0.9-7c0-0.3-0.3-0.5-0.7-0.5c-2.8,0.4-5.5,1.3-8,2.6c-0.3,0.2-0.4,0.5-0.2,0.8L16.8,10.6z"/>
		<path class="st1" d="M9.3,20l-6.8-1.8c-0.2,0-0.3,0-0.4,0.1c-0.1,0.1-0.2,0.2-0.3,0.4c-0.6,2.1-0.8,4.2-0.8,6.3c0,0.4,0,0.7,0,1.1
			c0,0.3,0.3,0.6,0.6,0.6c0,0,0,0,0,0l7-0.3c0.2,0,0.3-0.1,0.4-0.2c0.1-0.1,0.2-0.3,0.2-0.4c0-0.3,0-0.5,0-0.7
			c0-1.4,0.2-2.8,0.6-4.2C9.7,20.4,9.6,20.1,9.3,20z"/>
		<path class="st1" d="M35.5,3.2c-2.6-1.2-5.3-2-8.1-2.3c-0.2,0-0.3,0-0.4,0.1c-0.1,0.1-0.2,0.2-0.2,0.4l-0.7,7
			c0,0.3,0.2,0.6,0.5,0.6c1.9,0.2,3.7,0.7,5.3,1.5c0.1,0,0.2,0.1,0.3,0.1c0.1,0,0.1,0,0.2,0c0.1-0.1,0.3-0.2,0.3-0.3L35.8,4
			C35.9,3.7,35.8,3.3,35.5,3.2z"/>
		<path class="st1" d="M45.8,13c0-0.1,0-0.3-0.1-0.4c-1.5-2.4-3.3-4.6-5.5-6.4C40.1,6.1,40,6,39.8,6.1c-0.2,0-0.3,0.1-0.4,0.2
			L35,11.7c-0.1,0.1-0.1,0.3-0.1,0.4c0,0.2,0.1,0.3,0.2,0.4c1.5,1.2,2.7,2.6,3.6,4.2c0.1,0.2,0.3,0.3,0.5,0.3c0.1,0,0.2,0,0.3-0.1
			l6-3.6C45.7,13.3,45.8,13.1,45.8,13z"/>
		<path class="st1" d="M48.1,17.7c-0.1-0.3-0.4-0.5-0.7-0.4l-6.7,2.1c-0.3,0.1-0.5,0.4-0.4,0.7c0.5,1.5,0.7,3.1,0.7,4.8
			c0,0.2,0,0.5,0,0.7c0,0.2,0,0.3,0.2,0.4c0.1,0.1,0.3,0.2,0.4,0.2l7,0.3l0,0c0.3,0,0.6-0.2,0.6-0.6c0-0.4,0-0.8,0-1.1
			C49.2,22.5,48.8,20,48.1,17.7z"/>
		<path class="st1" d="M25,23.7c-0.1,0-0.2,0-0.3,0l-9.5-5.6c-0.2-0.1-0.5-0.1-0.7,0.1c-0.2,0.2-0.2,0.5-0.1,0.7l5.2,9.7
			c0,0.2,0,0.4,0,0.6c0,1.5,0.6,2.8,1.6,3.9c1,1,2.4,1.6,3.9,1.6c1.5,0,2.8-0.6,3.9-1.6c1-1,1.6-2.4,1.6-3.9c0-1.5-0.6-2.8-1.6-3.9
			C27.9,24.3,26.5,23.7,25,23.7z"/>
	</g>
</g>
</svg>
