<?xml version="1.0" encoding="utf-8"?>
<!-- Generator: Adobe Illustrator 19.2.1, SVG Export Plug-In . SVG Version: 6.00 Build 0)  -->
<svg version="1.1" id="Layer_1" xmlns="http://www.w3.org/2000/svg" xmlns:xlink="http://www.w3.org/1999/xlink" x="0px" y="0px"
	 viewBox="0 0 612 792" style="enable-background:new 0 0 612 792;" xml:space="preserve">
<style type="text/css">
	.st0{fill:#C52127;}
	.st1{fill:#FFFFFF;}
</style>
<g>
	<path class="st0" d="M284.5,331.1l-17.5-8.8c-0.3,0.3-7.5,14.8-4.6,2.2c-13.8,11.8-19.8,21-19.8,36.8v47.1
		c0,11.4,4.5,21.8,11.8,29.5v18.3c0,10.7,8.9,19.4,19.9,19.4h24.1c11,0,19.9-8.7,19.9-19.4v-4.7h107.9h0h0h107.9v4.7
		c0,10.7,8.9,19.4,19.9,19.4h24.1c11,0,19.9-8.7,19.9-19.4v-18.3c7.3-7.7,11.8-18.1,11.8-29.5v-47.1c0-15.8-9-37.7-22.8-49.4
		c-0.3-0.3-0.5-0.6-0.7-0.8l-12.9-12.4c10.7-2.4,22.2-11.4,22.2-20.5c0-10.7-14.8-14.5-27.5-14.5c-13.2,0-14.8,9.1-14.9,15.5
		l-33.2-32c-6.8-6.7-19.5-11.9-29.1-11.9h-64.7h0h0h-64.7c-9.5,0-22.3,5.3-29.1,11.9l-33.2,32c-0.2-6.4-1.7-15.5-14.9-15.5
		 M344.6,261.3c4.7-3.9,12.8-6.8,16.9-6.8h64.7h0h0H491c4.1,0,12.2,3,16.9,6.8l43.5,42.2H426.3h0h0H301.1L344.6,261.3z M257.5,354.2
		c0-11.6,9.1-21,20.3-21c11.2,0,47.8,21.5,47.8,33.1c0,11.6-36.6,8.9-47.8,8.9C266.6,375.2,257.5,365.8,257.5,354.2z M318.3,430.9
		h-3.9h-3.9l-22.9,0c-6.4-2-10.8-4.3-14-6.8c-1.6-1.3-2.8-2.6-3.8-3.9c-1-1.3-1.7-2.6-2.1-3.9c-2.8-8.1,3-15.4,3-15.4h39.1
		l26.1,29.9L318.3,430.9z M482.5,430.9h-56.2h0h0H370c-11.7,0-21.2-9.5-21.2-21.2h77.4h0h0h77.4
		C503.7,421.4,494.2,430.9,482.5,430.9z M487.4,395.2h-61.1h0h0h-61.1c-12.7,0-23.1-15.7-23.1-35.1h84.2h0h0h84.2
		C510.5,379.5,500.1,395.2,487.4,395.2z M584.7,416.4c-0.5,1.3-1.2,2.6-2.1,3.9c-1,1.3-2.2,2.6-3.8,3.9c-3.2,2.5-7.7,4.8-14,6.8
		l-22.9,0H538h-3.9l-17.6,0l26.1-29.9h39.1C581.7,400.9,587.6,408.3,584.7,416.4z M574.7,375.2c-11.2,0-47.8,2.7-47.8-8.9
		c0-11.6,36.6-33.1,47.8-33.1c11.2,0,20.3,9.4,20.3,21C595,365.8,585.9,375.2,574.7,375.2z"/>
	<g>
		<path class="st0" d="M372.3,343.6c-0.3-0.3-0.5-0.6-0.7-0.8l-12.9-12.4c10.7-2.4,22.2-11.4,22.2-20.5c0-10.7-14.8-14.5-27.5-14.5
			c-13.2,0-14.8,9.1-14.9,15.5l-33.2-32c-6.8-6.7-19.5-11.9-29.1-11.9h-64.7h0h0h-64.7c-9.6,0-22.3,5.3-29.1,11.9l-33.2,32
			c-0.2-6.4-1.7-15.5-14.9-15.5c-12.7,0-27.5,3.8-27.5,14.5c0,9.2,11.5,18.1,22.2,20.5l-12.9,12.4c-0.3,0.3-0.5,0.6-0.7,0.8
			c-13.8,11.8-22.8,33.6-22.8,49.4v47.1c0,11.4,4.5,21.8,11.8,29.5v18.3c0,10.7,8.9,19.4,19.9,19.4h24.1c11,0,19.9-8.7,19.9-19.4
			v-4.7h107.9h0h0h107.9v4.7c0,10.7,8.9,19.4,19.9,19.4h24.1c11,0,19.9-8.7,19.9-19.4v-18.3c7.3-7.7,11.8-18.1,11.8-29.5V393
			C395.1,377.1,386.1,355.3,372.3,343.6z M129.8,293c4.7-3.9,12.8-6.8,16.9-6.8h64.7h0h0h64.7c4.1,0,12.2,3,16.9,6.8l43.5,42.2
			H211.4h0h0H86.3L129.8,293z M42.7,385.9c0-11.6,9.1-21,20.3-21c11.2,0,47.8,21.5,47.8,33.1c0,11.6-36.6,8.9-47.8,8.9
			C51.8,406.8,42.7,397.5,42.7,385.9z M103.5,462.5h-3.9h-3.9l-22.9,0c-6.4-2-10.8-4.3-14-6.8c-1.6-1.3-2.8-2.6-3.8-3.9
			c-1-1.3-1.7-2.6-2.1-3.9c-2.8-8.1,3-15.4,3-15.4h39.1l26.1,29.9L103.5,462.5z M267.6,462.5h-56.2h0h0h-56.2
			c-11.7,0-21.2-9.5-21.2-21.2h77.4h0h0h77.4C288.9,453,279.3,462.5,267.6,462.5z M272.6,426.8h-61.1h0h0h-61.1
			c-12.7,0-23.1-15.7-23.1-35.1h84.2h0h0h84.2C295.7,411.1,285.3,426.8,272.6,426.8z M369.9,448c-0.5,1.3-1.2,2.6-2.1,3.9
			c-1,1.3-2.2,2.6-3.8,3.9c-3.2,2.5-7.7,4.8-14,6.8l-22.9,0h-3.9h-3.9l-17.6,0l26.1-29.9h39.1C366.9,432.6,372.8,440,369.9,448z
			 M359.9,406.8c-11.2,0-47.8,2.7-47.8-8.9c0-11.6,36.6-33.1,47.8-33.1c11.2,0,20.3,9.4,20.3,21
			C380.1,397.5,371.1,406.8,359.9,406.8z"/>
		<path class="st1" d="M276.1,266.8c9.5,0,22.3,5.3,29.1,11.9l33.2,32c0.2-6.4,1.7-15.5,14.9-15.5c12.7,0,27.5,3.8,27.5,14.5
			c0,9.2-11.5,18.1-22.2,20.5l12.9,12.4c0.3,0.3,0.5,0.6,0.7,0.8c13.8,11.8,22.8,33.6,22.8,49.4v47.1c0,11.4-4.5,21.8-11.8,29.5
			v18.3c0,10.7-8.9,19.4-19.9,19.4h-24.1c-11,0-19.9-8.7-19.9-19.4v-4.7H211.4h0h0H103.5v4.7c0,10.7-8.9,19.4-19.9,19.4H59.5
			c-11,0-19.9-8.7-19.9-19.4v-18.3c-7.3-7.7-11.8-18.1-11.8-29.5V393c0-15.8,9-37.7,22.8-49.4c0.3-0.3,0.5-0.6,0.8-0.8l12.9-12.4
			C53.5,327.9,42,318.9,42,309.8c0-10.7,14.8-14.5,27.5-14.5c13.2,0,14.8,9.1,14.9,15.5l33.2-32c6.7-6.7,19.5-11.9,29.1-11.9h64.7h0
			h0H276.1 M86.3,335.2h125.1h0h0h125.1L293,293c-4.7-3.9-12.8-6.8-16.9-6.8h-64.7h0h0h-64.7c-4.1,0-12.2,3-16.9,6.8L86.3,335.2
			 M343.6,407.1c6.7,0,12.7-0.3,16.3-0.3c11.2,0,20.3-9.4,20.3-21c0-11.6-9.1-21-20.3-21c-11.2,0-47.8,21.5-47.8,33.1
			C312.1,405.8,329.2,407.1,343.6,407.1 M79.3,407.1c14.4,0,31.5-1.3,31.5-9.2c0-11.6-36.6-33.1-47.8-33.1s-20.3,9.4-20.3,21
			c0,11.6,9.1,21,20.3,21C66.5,406.8,72.6,407.1,79.3,407.1 M150.3,426.8h61.1h0h0h61.1c12.7,0,23.1-15.7,23.1-35.1h-84.2h0h0h-84.2
			C127.2,411.1,137.6,426.8,150.3,426.8 M319.4,462.5h3.9h3.9l22.9,0c6.4-2,10.8-4.3,14-6.8c1.6-1.3,2.8-2.6,3.8-3.9
			c1-1.3,1.7-2.6,2.1-3.9c2.9-8.1-3-15.4-3-15.4h-39.1l-26,29.9L319.4,462.5 M72.9,462.6l22.9,0h3.9h3.9l17.6,0l-26-29.9H56
			c0,0-5.9,7.4-3,15.4c0.5,1.3,1.2,2.6,2.1,3.9c1,1.3,2.2,2.6,3.8,3.9C62,458.3,66.5,460.6,72.9,462.6 M155.2,462.5h56.2h0h0h56.2
			c11.7,0,21.2-9.5,21.2-21.2h-77.4h0h0H134C134,453,143.5,462.5,155.2,462.5 M276.1,245.6h-64.7h-64.7c-15.2,0-33.2,7.4-44,18.1
			l-15.1,14.6c-5.2-2.7-11.3-4.2-18.1-4.2c-33.6,0-48.7,17.9-48.7,35.6c0,9.1,3.8,17.3,9.6,24C16.3,349.3,6.6,372.9,6.6,393v47.1
			c0,13.3,4.1,26.2,11.8,37v10.8c0,22.4,18.4,40.5,41.1,40.5h24.1c16.7,0,31.1-9.9,37.5-24.1h90.3h90.3
			c6.4,14.2,20.8,24.1,37.5,24.1h24.1c22.6,0,41.1-18.2,41.1-40.5v-10.8c7.7-10.8,11.8-23.6,11.8-37V393c0-20.1-9.7-43.7-23.8-59.3
			c5.8-6.7,9.6-14.8,9.6-24c0-17.7-15-35.6-48.7-35.6c-6,0-12.3,1.3-18,4.2l-15.4-14.8C309.4,253.1,291.3,245.6,276.1,245.6
			L276.1,245.6z M147.7,307.3h63.7h63.8c1.2,0.3,3.1,1.1,4,1.7l5.2,5h-72.9h-72.9l5.2-5C144.6,308.4,146.5,307.6,147.7,307.3
			L147.7,307.3z"/>
	</g>
</g>
</svg>
