<?xml version="1.0" encoding="utf-8"?>
<!-- Generator: Adobe Illustrator 19.2.1, SVG Export Plug-In . SVG Version: 6.00 Build 0)  -->
<svg version="1.1" id="Layer_1" xmlns="http://www.w3.org/2000/svg" xmlns:xlink="http://www.w3.org/1999/xlink" x="0px" y="0px"
	 viewBox="0 0 50 29.8" style="enable-background:new 0 0 50 29.8;" xml:space="preserve">
<style type="text/css">
	.st0{fill:#FFFFFF;}
</style>
<g>
	<path id="ShareThis_9_" class="st0" d="M-40,15.1c0,0.2,0,0.3,0,0.5l17.1,8.6c1.5-1.2,3.3-2,5.4-2c4.7,0,8.4,3.8,8.4,8.4
		c0,4.7-3.8,8.4-8.4,8.4c-4.7,0-8.4-3.8-8.4-8.4c0-0.2,0-0.3,0-0.5L-43,21.5c-1.5,1.2-3.3,2-5.4,2c-4.7,0-8.4-3.8-8.4-8.4
		c0-4.7,3.8-8.4,8.4-8.4c2.1,0,3.9,0.8,5.4,2l17.1-8.6c0-0.2,0-0.3,0-0.5c0-4.6,3.8-8.4,8.4-8.4c4.7,0,8.4,3.8,8.4,8.4
		c0,4.7-3.8,8.4-8.4,8.4c-2.1,0-3.9-0.8-5.4-2l-17.1,8.6C-40.1,14.8-40,15-40,15.1z"/>
</g>
<g>
	<path class="st0" d="M48.7,13.4C48.2,12.9,38.1,1.2,25.1,1.2C12.1,1.2,2,12.9,1.5,13.4c-0.8,1-0.8,2.4,0,3.4
		C2,17.3,12.1,29.1,25.1,29.1c13,0,23.1-11.8,23.6-12.3C49.5,15.8,49.5,14.4,48.7,13.4z M29.1,8.2c0.9-0.5,2.1,0.1,2.7,1.2
		c0.6,1.2,0.4,2.5-0.4,2.9c-0.9,0.5-2.1-0.1-2.7-1.2C28,10,28.2,8.7,29.1,8.2z M25.1,24.8c-9.1,0-16.7-7-19.3-9.7
		c1.8-1.8,5.8-5.6,11.1-7.9c-1,1.6-1.6,3.4-1.6,5.4c0,5.5,4.4,9.9,9.9,9.9c5.5,0,9.9-4.4,9.9-9.9c0-2-0.6-3.9-1.6-5.4
		c5.2,2.3,9.3,6,11.1,7.9C41.8,17.9,34.2,24.8,25.1,24.8z"/>
</g>
<g>
	<g>
		<g>
			<g>
				<path class="st0" d="M35.8-45.1H14.6c-1.1,0-2-0.9-2-2c0-1.1,0.9-2,2-2h21.2c1.1,0,2,0.9,2,2C37.8-46,36.9-45.1,35.8-45.1z"/>
			</g>
			<g>
				<path class="st0" d="M35.8-34.6H14.6c-1.1,0-2-0.9-2-2c0-1.1,0.9-2,2-2h21.2c1.1,0,2,0.9,2,2C37.8-35.5,36.9-34.6,35.8-34.6z"/>
			</g>
		</g>
		<g>
			<path class="st0" d="M9-12.4c-0.7-0.4-1.1-1.2-1-2l1.2-8.9H6c-2.7,0-4.9-2.2-4.9-4.9v-27.4c0-2.7,2.2-4.9,4.9-4.9h38.5
				c2.7,0,4.9,2.2,4.9,4.9v27.4c0,2.7-2.2,4.9-4.9,4.9H24.4L11.3-12.6C10.3-11.8,9.3-12.2,9-12.4z M6-56.5c-0.5,0-0.9,0.4-0.9,0.9
				v27.4c0,0.5,0.4,0.9,0.9,0.9h5.5c1.6,0.1,2.2,1.6,2,2.3l-0.8,6.1l9.7-7.9c0.4-0.3,0.8-0.5,1.3-0.5h20.8c0.5,0,0.9-0.4,0.9-0.9
				v-27.4c0-0.5-0.4-0.9-0.9-0.9L6-56.5L6-56.5z"/>
		</g>
	</g>
</g>
</svg>
