<?xml version="1.0" encoding="utf-8"?>
<!-- Generator: Adobe Illustrator 19.2.1, SVG Export Plug-In . SVG Version: 6.00 Build 0)  -->
<svg version="1.1" id="Layer_1" xmlns="http://www.w3.org/2000/svg" xmlns:xlink="http://www.w3.org/1999/xlink" x="0px" y="0px"
	 viewBox="0 0 612 792" style="enable-background:new 0 0 612 792;" xml:space="preserve">
<style type="text/css">
	.st0{opacity:0.7;}
	.st1{fill:#FFFFFF;}
</style>
<g class="st0">
	<g>
		<path class="st1" d="M593.9,343.8l0.1-0.1L475.9,186l-0.2,0.2c-3.6-4.2-8.8-7-14.7-7H146c-6,0-11.2,2.8-14.8,7L131,186L14,342.4
			c-0.1,0.1-0.3,0.2-0.4,0.3c-0.3,0.3-0.4,0.7-0.6,0.9l-0.1,0.2l0,0c-0.8,0.9-1.2,2.1-1.8,3c-0.5,0.9-1.2,1.6-1.5,2.6
			c-3,7.1-1.8,15.6,4.1,21.4l275.5,275.3c7.7,7.8,20.4,7.8,28.1,0l275.5-275.3c0,0,0-0.1,0.1-0.1c3.7-3.6,6-8.5,6-14.1
			C598.8,351.7,596.8,347.3,593.9,343.8L593.9,343.8z M427,218.6l-37.9,86.1l-47.4-86.1H427z M363.7,336.8H243.3l60.2-104
			L363.7,336.8z M265.2,218.6l-47.4,86.1l-37.9-86.1H265.2L265.2,218.6z M142.7,232.9l48.1,103.9H70.6L142.7,232.9z M75.3,376.2
			h115.8l64.2,179.9L75.3,376.2z M303.4,573.9L233,376.2h141L303.4,573.9z M352,555.2l63.8-178.9h115.2L352,555.2z M416.2,336.8
			L464.2,233l72.1,103.9H416.2z"/>
	</g>
</g>
</svg>
