<?xml version="1.0" encoding="utf-8"?>
<!-- Generator: Adobe Illustrator 19.2.1, SVG Export Plug-In . SVG Version: 6.00 Build 0)  -->
<svg version="1.1" id="Layer_1" xmlns="http://www.w3.org/2000/svg" xmlns:xlink="http://www.w3.org/1999/xlink" x="0px" y="0px"
	 viewBox="0 0 612 792" style="enable-background:new 0 0 612 792;" xml:space="preserve">
<style type="text/css">
	.st0{fill:#FFDE17;}
</style>
<g>
	<path class="st0" d="M601.4,638L343,184.2c-8.2-14.4-22.1-23-37.1-23s-28.9,8.6-37,23L10.6,637.9c-8.1,14.3-8.5,30.7-1,43.6
		c7.5,12.9,21.8,20.8,38.3,20.8h516.3c16.5,0,30.8-7.9,38.3-20.8C609.9,668.6,609.5,652.3,601.4,638z M304.3,306.4
		c19.8,0,35.8,16,35.8,35.8v128.9c0,19.8-16,35.8-35.8,35.8c-19.8,0-35.8-16-35.8-35.8V342.2C268.5,322.4,284.5,306.4,304.3,306.4z
		 M306,547.4c19.8,0,35.8,16,35.8,35.8c0,19.8-16,35.8-35.8,35.8c-19.8,0-35.8-16-35.8-35.8C270.2,563.4,286.2,547.4,306,547.4z"/>
</g>
</svg>
